<?xml version="1.0" encoding="UTF-8" standalone="no"?>
<svg
   width="422.54068pt"
   height="211.67297pt"
   viewBox="0 0 422.54068 211.67297"
   version="1.1"
   id="svg34"
   sodipodi:docname="lc_mkuranga_compostion.svg"
   inkscape:version="1.4 (86a8ad7, 2024-10-11)"
   xmlns:inkscape="http://www.inkscape.org/namespaces/inkscape"
   xmlns:sodipodi="http://sodipodi.sourceforge.net/DTD/sodipodi-0.dtd"
   xmlns="http://www.w3.org/2000/svg"
   xmlns:svg="http://www.w3.org/2000/svg">
  <defs
     id="defs34" />
  <sodipodi:namedview
     id="namedview34"
     pagecolor="#ffffff"
     bordercolor="#000000"
     borderopacity="0.25"
     inkscape:showpageshadow="2"
     inkscape:pageopacity="0.0"
     inkscape:pagecheckerboard="0"
     inkscape:deskcolor="#d1d1d1"
     inkscape:document-units="pt"
     inkscape:zoom="1.5111755"
     inkscape:cx="131.3547"
     inkscape:cy="21.506437"
     inkscape:window-width="2560"
     inkscape:window-height="1494"
     inkscape:window-x="-11"
     inkscape:window-y="-11"
     inkscape:window-maximized="1"
     inkscape:current-layer="g34" />
  <g
     class="svglite"
     id="g34"
     transform="translate(0,-34.244864)">
    <defs
       id="defs1">
      <style
         type="text/css"
         id="style1"><![CDATA[
    .svglite line, .svglite polyline, .svglite polygon, .svglite path, .svglite rect, .svglite circle {
      fill: none;
      stroke: #000000;
      stroke-linecap: round;
      stroke-linejoin: round;
      stroke-miterlimit: 10.00;
    }
    .svglite text {
      white-space: pre;
    }
    .svglite g.glyphgroup path {
      fill: inherit;
      stroke: none;
    }
  ]]></style>
    </defs>
    <defs
       id="defs2">
      <clipPath
         id="cpMC4wMHw0MjguMDB8MC4wMHwzMDIuMDA=">
        <rect
           x="0"
           y="0"
           width="428"
           height="302"
           id="rect2" />
      </clipPath>
    </defs>
    <defs
       id="defs3">
      <clipPath
         id="cpNjMuMDB8MzY1LjAwfDAuMDB8MzAyLjAw">
        <rect
           x="63"
           y="0"
           width="302"
           height="302"
           id="rect3" />
      </clipPath>
    </defs>
    <defs
       id="defs5" />
    <polygon
       points="263.25,131.63 262.89,130.75 295.48,117.25 296.08,118.72 296.64,120.2 297.18,121.7 263.91,133.42 263.59,132.52 "
       style="fill:#f8766d;fill-opacity:0.8;stroke:#ffffff;stroke-width:1.07"
       id="polygon6" />
    <polygon
       points="297.18,121.7 297.4,122.32 297.62,122.95 264.17,134.17 264.04,133.79 263.91,133.42 "
       style="fill:#cd9600;fill-opacity:0.8;stroke:#ffffff;stroke-width:1.07"
       id="polygon7" />
    <polygon
       points="297.62,122.95 297.73,123.3 297.84,123.65 264.31,134.59 264.24,134.38 264.17,134.17 "
       style="fill:#7cae00;fill-opacity:0.8;stroke:#ffffff;stroke-width:1.07"
       id="polygon8" />
    <polygon
       points="300.26,132.62 300.57,134.13 300.85,135.66 301.11,137.18 301.33,138.72 301.54,140.25 301.71,141.79 301.86,143.33 301.98,144.88 302.08,146.42 302.14,147.97 302.18,149.52 302.19,151.07 302.18,152.61 302.14,154.16 302.07,155.71 301.97,157.26 301.85,158.8 301.7,160.34 301.52,161.88 301.32,163.42 301.08,164.95 300.83,166.47 300.54,168 300.23,169.51 299.89,171.02 299.53,172.53 299.13,174.03 298.72,175.52 298.27,177 297.8,178.48 297.31,179.95 296.79,181.41 296.24,182.85 295.67,184.29 295.07,185.72 294.45,187.14 293.8,188.55 293.13,189.94 292.43,191.33 291.71,192.7 290.97,194.06 290.2,195.4 289.41,196.73 288.6,198.05 287.76,199.35 286.9,200.64 286.01,201.91 285.11,203.17 284.18,204.41 283.23,205.64 282.26,206.84 281.27,208.03 280.26,209.21 279.23,210.36 278.18,211.5 277.1,212.61 276.01,213.71 274.9,214.79 273.77,215.85 272.62,216.89 271.46,217.91 270.27,218.91 269.07,219.89 267.85,220.84 266.62,221.78 265.37,222.69 264.1,223.58 262.82,224.45 261.52,225.3 260.21,226.12 258.88,226.92 257.54,227.7 256.19,228.45 254.82,229.18 253.44,229.88 252.05,230.56 250.65,231.22 249.23,231.85 247.81,232.46 246.37,233.04 244.93,233.59 243.47,234.12 242.01,234.63 240.54,235.11 239.05,235.56 237.57,235.99 236.07,236.39 234.57,236.76 233.06,237.11 231.54,237.43 230.02,237.73 228.5,237.99 226.97,238.24 225.43,238.45 223.9,238.64 222.35,238.8 220.81,238.93 219.27,239.04 217.72,239.12 216.17,239.17 214.62,239.19 213.07,239.19 211.53,239.16 209.98,239.1 208.43,239.02 206.89,238.91 205.34,238.77 203.8,238.6 202.27,238.41 200.73,238.19 199.2,237.94 197.68,237.67 196.16,237.37 194.65,237.04 193.14,236.69 191.64,236.31 190.14,235.91 188.66,235.47 187.18,235.02 185.7,234.53 184.24,234.02 182.79,233.49 181.34,232.93 179.91,232.34 178.49,231.73 177.08,231.09 175.68,230.43 174.29,229.75 172.91,229.04 171.55,228.3 170.19,227.55 168.86,226.77 167.53,225.96 166.22,225.13 164.93,224.28 163.65,223.41 162.39,222.51 161.14,221.6 159.91,220.66 158.69,219.7 157.49,218.72 156.31,217.71 155.15,216.69 154.01,215.65 152.88,214.58 151.77,213.5 150.69,212.4 149.62,211.28 148.57,210.14 174.74,186.48 175.37,187.17 176.01,187.84 176.66,188.5 177.33,189.15 178,189.79 178.69,190.41 179.39,191.03 180.1,191.63 180.82,192.22 181.54,192.79 182.28,193.36 183.03,193.91 183.79,194.45 184.56,194.97 185.33,195.48 186.12,195.98 186.91,196.46 187.72,196.93 188.53,197.38 189.35,197.82 190.17,198.25 191.01,198.66 191.85,199.06 192.69,199.44 193.55,199.8 194.41,200.16 195.27,200.49 196.15,200.81 197.02,201.12 197.91,201.41 198.79,201.68 199.69,201.94 200.58,202.19 201.48,202.41 202.39,202.63 203.3,202.82 204.21,203 205.12,203.17 206.04,203.31 206.96,203.45 207.88,203.56 208.81,203.66 209.73,203.74 210.66,203.81 211.59,203.86 212.52,203.9 213.44,203.91 214.37,203.92 215.3,203.9 216.23,203.87 217.16,203.82 218.09,203.76 219.01,203.68 219.94,203.58 220.86,203.47 221.78,203.34 222.7,203.2 223.61,203.04 224.53,202.86 225.43,202.67 226.34,202.46 227.24,202.23 228.14,201.99 229.03,201.74 229.92,201.46 230.81,201.18 231.68,200.87 232.56,200.56 233.42,200.22 234.29,199.87 235.14,199.51 235.99,199.13 236.83,198.74 237.67,198.33 238.49,197.91 239.31,197.47 240.13,197.02 240.93,196.55 241.73,196.07 242.51,195.58 243.29,195.07 244.06,194.55 244.82,194.01 245.57,193.47 246.31,192.91 247.04,192.33 247.76,191.75 248.47,191.15 249.17,190.53 249.86,189.91 250.54,189.28 251.21,188.63 251.86,187.97 252.51,187.3 253.14,186.62 253.76,185.92 254.36,185.22 254.96,184.51 255.54,183.78 256.11,183.05 256.67,182.3 257.21,181.55 257.74,180.78 258.25,180.01 258.76,179.23 259.25,178.44 259.72,177.64 260.18,176.83 260.63,176.02 261.06,175.2 261.48,174.37 261.88,173.53 262.27,172.68 262.64,171.83 263,170.98 263.34,170.11 263.67,169.24 263.99,168.37 264.28,167.49 264.56,166.6 264.83,165.71 265.08,164.82 265.32,163.92 265.53,163.01 265.74,162.11 265.92,161.2 266.1,160.28 266.25,159.37 266.39,158.45 266.51,157.53 266.62,156.6 266.71,155.68 266.78,154.75 266.84,153.83 266.88,152.9 266.91,151.97 266.92,151.04 266.91,150.11 266.89,149.18 266.85,148.25 266.79,147.33 266.72,146.4 266.63,145.47 266.52,144.55 266.4,143.63 266.26,142.71 266.11,141.79 265.94,140.88 265.75,139.97 265.55,139.06 265.33,138.16 265.1,137.26 264.85,136.36 264.59,135.47 264.31,134.59 297.84,123.65 298.31,125.12 298.75,126.61 299.17,128.1 299.56,129.6 299.92,131.1 "
       style="fill:#00be67;fill-opacity:0.8;stroke:#ffffff;stroke-width:1.07"
       id="polygon9" />
    <polygon
       points="172.9,184.33 173.5,185.06 174.11,185.77 174.74,186.48 148.57,210.14 147.52,208.96 146.5,207.76 145.49,206.54 144.51,205.31 172.31,183.59 "
       style="fill:#00bfc4;fill-opacity:0.8;stroke:#ffffff;stroke-width:1.07"
       id="polygon10" />
    <polygon
       points="138.98,197.36 138.14,195.98 137.33,194.58 136.54,193.17 135.78,191.75 135.05,190.31 134.34,188.86 133.66,187.39 133.01,185.91 132.39,184.42 131.79,182.92 131.22,181.41 130.67,179.89 164,168.34 164.33,169.25 164.67,170.15 165.03,171.05 165.41,171.95 165.8,172.83 166.21,173.71 166.63,174.59 167.07,175.45 167.53,176.3 168,177.15 168.48,177.99 168.99,178.82 169.5,179.64 170.03,180.45 170.58,181.25 171.14,182.04 171.72,182.82 172.31,183.59 144.51,205.31 143.53,204.03 142.57,202.73 141.63,201.41 140.72,200.08 139.84,198.73 "
       style="fill:#00a9ff;fill-opacity:0.8;stroke:#ffffff;stroke-width:1.07"
       id="polygon11" />
    <polygon
       points="128.05,170.78 127.71,169.24 127.4,167.69 127.11,166.14 126.86,164.58 126.63,163.01 126.43,161.44 161.46,157.27 161.58,158.21 161.71,159.15 161.87,160.08 162.04,161.01 162.23,161.94 162.43,162.87 162.65,163.79 162.89,164.71 163.14,165.62 163.41,166.53 163.7,167.44 164,168.34 130.67,179.89 130.17,178.39 129.69,176.89 129.24,175.37 128.82,173.85 128.42,172.32 "
       style="fill:#c77cff;fill-opacity:0.8;stroke:#ffffff;stroke-width:1.07"
       id="polygon12" />
    <polygon
       points="125.81,152.22 125.81,150.67 125.83,149.13 125.87,147.59 125.94,146.05 126.04,144.51 126.17,142.97 126.33,141.44 126.51,139.91 126.71,138.38 126.95,136.86 127.21,135.34 127.49,133.82 127.81,132.31 128.15,130.81 128.51,129.31 128.91,127.82 129.33,126.33 129.77,124.86 130.24,123.39 130.73,121.93 131.26,120.48 131.8,119.03 132.37,117.6 132.97,116.18 133.59,114.77 134.24,113.37 134.91,111.98 135.6,110.6 136.32,109.24 137.06,107.89 137.83,106.55 138.62,105.22 139.43,103.91 140.26,102.62 141.12,101.33 142,100.07 142.9,98.82 143.82,97.58 144.77,96.36 145.74,95.16 146.72,93.97 147.73,92.81 148.76,91.66 149.8,90.53 150.87,89.41 151.96,88.32 153.06,87.24 154.19,86.19 155.33,85.15 156.49,84.14 157.67,83.14 158.86,82.17 160.08,81.21 161.3,80.28 162.55,79.37 163.81,78.48 165.08,77.61 166.37,76.77 167.68,75.95 169,75.15 170.33,74.38 171.68,73.62 173.04,72.9 174.41,72.19 175.79,71.51 177.19,70.85 178.6,70.22 180.01,69.62 181.44,69.04 182.88,68.48 184.33,67.95 185.79,67.44 187.25,66.96 188.72,66.51 190.2,66.08 191.69,65.67 193.19,65.3 194.69,64.95 196.2,64.62 197.71,64.32 199.23,64.05 200.75,63.81 202.28,63.59 203.81,63.4 205.34,63.23 206.88,63.09 208.42,62.98 209.96,62.9 211.5,62.84 213.04,62.81 214.58,62.81 216.12,62.83 217.66,62.88 219.2,62.96 220.74,63.06 222.28,63.2 223.81,63.35 225.34,63.54 226.87,63.75 228.39,63.99 229.91,64.25 231.43,64.54 232.94,64.86 234.44,65.21 235.94,65.58 237.43,65.97 238.91,66.4 240.39,66.85 241.85,67.32 243.31,67.82 244.76,68.34 246.2,68.89 247.63,69.47 249.05,70.07 250.46,70.7 251.86,71.35 253.25,72.02 254.62,72.72 255.99,73.44 257.34,74.19 258.67,74.96 259.99,75.75 261.3,76.56 262.6,77.4 263.88,78.26 265.14,79.15 266.39,80.05 267.62,80.98 268.84,81.93 270.04,82.9 271.22,83.89 272.38,84.9 273.53,85.93 274.66,86.98 275.77,88.05 276.86,89.14 277.93,90.25 278.99,91.38 280.02,92.52 281.03,93.68 282.02,94.86 282.99,96.06 283.94,97.28 284.87,98.51 285.78,99.76 286.66,101.02 287.53,102.3 288.37,103.59 289.18,104.9 289.98,106.22 290.75,107.55 291.5,108.9 292.22,110.26 292.92,111.64 293.6,113.02 294.25,114.42 294.88,115.83 295.48,117.25 262.89,130.75 262.53,129.9 262.15,129.05 261.76,128.21 261.35,127.38 260.93,126.56 260.5,125.74 260.05,124.93 259.59,124.13 259.11,123.34 258.62,122.55 258.12,121.78 257.6,121.01 257.07,120.25 256.52,119.5 255.97,118.77 255.4,118.04 254.81,117.32 254.22,116.61 253.61,115.91 252.99,115.23 252.36,114.55 251.72,113.88 251.06,113.23 250.4,112.59 249.72,111.96 249.03,111.34 248.33,110.73 247.62,110.14 246.9,109.56 246.17,108.99 245.43,108.43 244.68,107.89 243.93,107.36 243.16,106.84 242.38,106.34 241.6,105.85 240.8,105.37 240,104.91 239.19,104.46 238.37,104.03 237.55,103.61 236.72,103.21 235.88,102.82 235.03,102.44 234.18,102.08 233.32,101.74 232.46,101.41 231.59,101.09 230.71,100.79 229.83,100.51 228.95,100.24 228.06,99.98 227.16,99.75 226.26,99.52 225.36,99.32 224.46,99.13 223.55,98.95 222.64,98.79 221.72,98.65 220.81,98.52 219.89,98.41 218.97,98.32 218.05,98.24 217.12,98.18 216.2,98.13 215.27,98.1 214.35,98.08 213.42,98.09 212.5,98.1 211.57,98.14 210.65,98.19 209.73,98.26 208.8,98.34 207.88,98.44 206.97,98.55 206.05,98.68 205.14,98.83 204.23,98.99 203.32,99.17 202.41,99.37 201.51,99.58 200.62,99.8 199.72,100.05 198.83,100.3 197.95,100.58 197.07,100.86 196.2,101.17 195.33,101.49 194.47,101.82 193.61,102.17 192.76,102.53 191.91,102.91 191.08,103.31 190.25,103.71 189.42,104.14 188.61,104.57 187.8,105.03 187,105.49 186.21,105.97 185.42,106.46 184.65,106.97 183.89,107.49 183.13,108.02 182.38,108.57 181.65,109.13 180.92,109.7 180.2,110.28 179.49,110.88 178.8,111.49 178.11,112.11 177.44,112.75 176.77,113.39 176.12,114.05 175.48,114.72 174.85,115.39 174.24,116.08 173.63,116.78 173.04,117.5 172.46,118.22 171.89,118.95 171.34,119.69 170.8,120.44 170.27,121.2 169.76,121.97 169.26,122.75 168.77,123.53 168.3,124.33 167.84,125.13 167.39,125.94 166.96,126.76 166.54,127.59 166.14,128.42 165.75,129.26 165.38,130.11 165.02,130.96 164.68,131.82 164.35,132.69 164.04,133.56 163.74,134.43 163.46,135.31 163.2,136.2 162.94,137.09 162.71,137.99 162.49,138.88 162.29,139.79 162.1,140.69 161.92,141.6 161.77,142.51 161.63,143.43 161.5,144.35 161.4,145.26 161.3,146.18 161.23,147.11 161.17,148.03 161.12,148.95 161.1,149.88 161.08,150.8 161.09,151.73 161.11,152.65 161.15,153.58 161.2,154.5 161.27,155.43 161.35,156.35 161.46,157.27 126.43,161.44 126.26,159.91 126.11,158.38 126,156.84 125.91,155.3 125.85,153.76 "
       style="fill:#ff61cc;fill-opacity:0.8;stroke:#ffffff;stroke-width:1.07"
       id="polygon13" />
    <line
       x1="296.43704"
       y1="120.13988"
       x2="298.66589"
       y2="116.33158"
       style="stroke-width:1.07;stroke-linecap:butt"
       id="line13" />
    <line
       x1="297.39999"
       y1="122.32"
       x2="301.57001"
       y2="120.89"
       style="stroke-width:1.07;stroke-linecap:butt"
       id="line14" />
    <line
       x1="297.42575"
       y1="123.87172"
       x2="301.47983"
       y2="125.6189"
       style="stroke-width:1.07;stroke-linecap:butt"
       id="line15" />
    <line
       x1="258.20999"
       y1="227.31"
       x2="260.42001"
       y2="231.13"
       style="stroke-width:1.07;stroke-linecap:butt"
       id="line16" />
    <line
       x1="146.5"
       y1="207.75999"
       x2="143.12"
       y2="210.60001"
       style="stroke-width:1.07;stroke-linecap:butt"
       id="line17" />
    <line
       x1="136.53999"
       y1="193.17"
       x2="132.67"
       y2="195.28"
       style="stroke-width:1.07;stroke-linecap:butt"
       id="line18" />
    <line
       x1="128.05"
       y1="170.78"
       x2="123.76"
       y2="171.77"
       style="stroke-width:1.07;stroke-linecap:butt"
       id="line19" />
    <line
       x1="191.69"
       y1="65.669998"
       x2="190.58"
       y2="61.41"
       style="stroke-width:1.07;stroke-linecap:butt"
       id="line20" />
    <text
       x="300.48001"
       y="117.88"
       style="font-size:11.38px;font-family:Arial"
       textLength="123.3"
       lengthAdjust="spacingAndGlyphs"
       id="text20"
       transform="translate(-0.52732128,-0.34120789)">Bare / sparse vegetation</text>
    <text
       x="301.57001"
       y="120.89"
       style="font-size:11.38px;font-family:Arial"
       textLength="38.580002"
       lengthAdjust="spacingAndGlyphs"
       id="text21"
       transform="translate(2.4194741,6.1107228)">Built-up</text>
    <text
       x="301.92001"
       y="121.91"
       style="font-size:11.38px;font-family:Arial"
       textLength="46.169998"
       lengthAdjust="spacingAndGlyphs"
       id="text22"
       transform="translate(-0.37222683,15.013147)">Cropland</text>
    <text
       x="260.42001"
       y="239.27"
       style="font-size:11.38px;font-family:Arial"
       textLength="51.84"
       lengthAdjust="spacingAndGlyphs"
       id="text23"
       transform="translate(2.1056327,-1.4037551)">Grassland</text>
    <text
       x="260.42001"
       y="255.66"
       style="font-size:11.38px;font-family:Arial"
       textLength="46.139999"
       lengthAdjust="spacingAndGlyphs"
       id="text24"
       transform="translate(56.852083,-18.248816)">(43.32%)</text>
    <text
       x="143.12"
       y="218.74001"
       text-anchor="end"
       style="font-size:11.38px;font-family:Arial"
       textLength="103.72"
       lengthAdjust="spacingAndGlyphs"
       id="text25"
       transform="translate(0.87734696,8.0715916)">Herbaceous wetland</text>
    <text
       x="132.67"
       y="203.42999"
       text-anchor="end"
       style="font-size:11.38px;font-family:Arial"
       textLength="56.27"
       lengthAdjust="spacingAndGlyphs"
       id="text26"
       transform="translate(-47.903144,-3.8603265)">Mangroves</text>
    <text
       x="132.67"
       y="219.81"
       text-anchor="end"
       style="font-size:11.38px;font-family:Arial"
       textLength="39.810001"
       lengthAdjust="spacingAndGlyphs"
       id="text27"
       transform="translate(-5.0886123,-20.705388)">(5.25%)</text>
    <text
       x="123.76"
       y="179.92"
       text-anchor="end"
       style="font-size:11.38px;font-family:Arial"
       textLength="51.880001"
       lengthAdjust="spacingAndGlyphs"
       id="text28"
       transform="translate(-45.622042,-1.0528165)">Shrubland</text>
    <text
       x="123.76"
       y="196.3"
       text-anchor="end"
       style="font-size:11.38px;font-family:Arial"
       textLength="39.810001"
       lengthAdjust="spacingAndGlyphs"
       id="text29"
       transform="translate(-2.4565715,-17.897877)">(3.42%)</text>
    <text
       x="190.58"
       y="45.02"
       text-anchor="end"
       style="font-size:11.38px;font-family:Arial"
       textLength="53.939999"
       lengthAdjust="spacingAndGlyphs"
       id="text30"
       transform="translate(-0.35093878,8.7734695)">Tree cover</text>
    <text
       x="190.58"
       y="61.41"
       text-anchor="end"
       style="font-size:11.38px;font-family:Arial"
       textLength="46.139999"
       lengthAdjust="spacingAndGlyphs"
       id="text31"
       transform="translate(47.727674,-7.3697145)">(45.64%)</text>
    <rect
       x="68.480003"
       y="5.48"
       width="291.04001"
       height="291.04001"
       style="stroke:#333333;stroke-width:0"
       id="rect32" />
  </g>
</svg>
