<?xml version="1.0" encoding="UTF-8" standalone="no"?>
<svg
   width="348.59161pt"
   height="215.64339pt"
   viewBox="0 0 348.59161 215.64339"
   version="1.1"
   id="svg33"
   sodipodi:docname="lc_mkoani_compostion.svg"
   inkscape:version="1.4 (86a8ad7, 2024-10-11)"
   xmlns:inkscape="http://www.inkscape.org/namespaces/inkscape"
   xmlns:sodipodi="http://sodipodi.sourceforge.net/DTD/sodipodi-0.dtd"
   xmlns="http://www.w3.org/2000/svg"
   xmlns:svg="http://www.w3.org/2000/svg">
  <defs
     id="defs33" />
  <sodipodi:namedview
     id="namedview33"
     pagecolor="#ffffff"
     bordercolor="#000000"
     borderopacity="0.25"
     inkscape:showpageshadow="2"
     inkscape:pageopacity="0.0"
     inkscape:pagecheckerboard="0"
     inkscape:deskcolor="#d1d1d1"
     inkscape:document-units="pt"
     inkscape:zoom="1.5111755"
     inkscape:cx="99.260477"
     inkscape:cy="67.166256"
     inkscape:window-width="2560"
     inkscape:window-height="1494"
     inkscape:window-x="-11"
     inkscape:window-y="-11"
     inkscape:window-maximized="1"
     inkscape:current-layer="g33" />
  <g
     class="svglite"
     id="g33"
     transform="translate(-80.400986,-60.052588)">
    <defs
       id="defs1">
      <style
         type="text/css"
         id="style1"><![CDATA[
    .svglite line, .svglite polyline, .svglite polygon, .svglite path, .svglite rect, .svglite circle {
      fill: none;
      stroke: #000000;
      stroke-linecap: round;
      stroke-linejoin: round;
      stroke-miterlimit: 10.00;
    }
    .svglite text {
      white-space: pre;
    }
    .svglite g.glyphgroup path {
      fill: inherit;
      stroke: none;
    }
  ]]></style>
    </defs>
    <defs
       id="defs2">
      <clipPath
         id="cpMC4wMHw0MjguMDB8MC4wMHwzMDIuMDA=">
        <rect
           x="0"
           y="0"
           width="428"
           height="302"
           id="rect2" />
      </clipPath>
    </defs>
    <defs
       id="defs3">
      <clipPath
         id="cpNjMuMDB8MzY1LjAwfDAuMDB8MzAyLjAw">
        <rect
           x="63"
           y="0"
           width="302"
           height="302"
           id="rect3" />
      </clipPath>
    </defs>
    <defs
       id="defs5" />
    <polygon
       points="295.48,117.25 295.66,117.67 295.83,118.1 271.28,127.97 271.16,127.67 271.04,127.37 "
       style="fill:#f8766d;fill-opacity:0.8;stroke:#ffffff;stroke-width:1.07"
       id="polygon6" />
    <polygon
       points="299.15,128.04 273.61,134.93 273.28,133.75 272.92,132.58 272.55,131.41 272.15,130.26 271.72,129.11 271.28,127.97 295.83,118.1 296.46,119.73 297.07,121.37 297.64,123.02 298.18,124.68 298.68,126.36 "
       style="fill:#cd9600;fill-opacity:0.8;stroke:#ffffff;stroke-width:1.07"
       id="polygon7" />
    <polygon
       points="299.15,128.04 299.66,130.02 300.13,132.02 274.29,137.71 273.96,136.32 273.61,134.93 "
       style="fill:#7cae00;fill-opacity:0.8;stroke:#ffffff;stroke-width:1.07"
       id="polygon8" />
    <polygon
       points="301.64,141.15 301.8,142.68 301.93,144.22 302.04,145.76 302.12,147.3 302.17,148.84 302.19,150.38 302.19,151.92 302.16,153.46 302.1,155.01 302.02,156.55 301.91,158.08 301.77,159.62 301.61,161.15 301.42,162.68 301.2,164.21 300.95,165.73 300.68,167.25 300.39,168.77 300.06,170.27 299.71,171.78 299.34,173.27 298.93,174.76 298.5,176.24 298.05,177.72 297.57,179.18 297.06,180.64 296.53,182.09 295.98,183.53 295.4,184.96 294.79,186.37 294.16,187.78 293.5,189.18 292.82,190.56 292.12,191.93 291.39,193.29 290.64,194.64 289.87,195.97 289.07,197.29 288.25,198.6 287.4,199.89 286.54,201.17 285.65,202.43 284.74,203.67 283.81,204.9 282.85,206.11 281.88,207.31 280.88,208.49 279.87,209.65 278.83,210.79 277.78,211.92 276.7,213.02 257.89,194.42 258.64,193.64 259.38,192.85 260.11,192.05 260.82,191.24 261.51,190.42 262.2,189.58 262.86,188.73 263.52,187.87 264.15,187 264.78,186.12 265.38,185.22 265.97,184.32 266.55,183.41 267.11,182.48 267.65,181.55 268.17,180.61 268.68,179.65 269.18,178.69 269.65,177.72 270.11,176.75 270.55,175.76 270.98,174.77 271.38,173.77 271.77,172.76 272.15,171.75 272.5,170.73 272.84,169.7 273.15,168.67 273.45,167.63 273.73,166.59 274,165.54 274.24,164.49 274.47,163.44 274.68,162.38 274.87,161.31 275.04,160.25 275.19,159.18 275.33,158.11 275.44,157.03 275.54,155.96 275.61,154.88 275.67,153.8 275.71,152.73 275.73,151.65 275.73,150.57 275.72,149.49 275.68,148.41 275.63,147.33 275.55,146.25 275.46,145.18 275.35,144.1 275.22,143.03 275.07,141.96 274.9,140.89 274.72,139.83 274.51,138.77 274.29,137.71 300.13,132.02 300.45,133.53 300.74,135.04 301,136.56 301.24,138.09 301.46,139.61 "
       style="fill:#00be67;fill-opacity:0.8;stroke:#ffffff;stroke-width:1.07"
       id="polygon9" />
    <polygon
       points="276.7,213.02 275.94,213.78 275.18,214.52 256.83,195.47 257.36,194.94 257.89,194.42 "
       style="fill:#00bfc4;fill-opacity:0.8;stroke:#ffffff;stroke-width:1.07"
       id="polygon10" />
    <polygon
       points="268.06,220.69 266.81,221.64 265.54,222.57 264.26,223.47 262.96,224.36 261.64,225.22 260.32,226.05 258.97,226.87 257.61,227.66 256.24,228.42 254.86,229.16 253.46,229.88 252.05,230.57 250.62,231.23 249.19,231.87 247.74,232.48 246.29,233.07 244.82,233.63 243.34,234.17 241.86,234.68 240.36,235.16 238.86,235.62 237.35,236.05 235.83,236.45 234.31,236.82 232.77,237.17 231.24,237.49 229.69,237.79 228.15,238.05 226.59,238.29 225.04,238.5 223.48,238.68 221.91,238.84 220.35,238.97 218.78,239.06 217.21,239.14 215.64,239.18 214.07,239.19 212.5,239.18 210.93,239.14 211.85,212.7 212.95,212.73 214.05,212.74 215.15,212.73 216.25,212.7 217.35,212.65 218.44,212.58 219.54,212.49 220.63,212.38 221.73,212.25 222.82,212.1 223.9,211.94 224.99,211.75 226.07,211.55 227.14,211.32 228.21,211.08 229.28,210.81 230.34,210.53 231.4,210.23 232.45,209.91 233.5,209.58 234.54,209.22 235.57,208.84 236.6,208.45 237.62,208.04 238.63,207.61 239.64,207.16 240.63,206.7 241.62,206.21 242.6,205.71 243.57,205.19 244.53,204.66 245.48,204.11 246.42,203.54 247.35,202.95 248.27,202.35 249.18,201.73 250.08,201.1 250.96,200.45 251.84,199.78 252.7,199.1 253.55,198.4 254.39,197.69 255.22,196.96 256.03,196.22 256.83,195.47 275.18,214.52 274.04,215.6 272.88,216.66 271.7,217.7 270.5,218.72 269.29,219.71 "
       style="fill:#00a9ff;fill-opacity:0.8;stroke:#ffffff;stroke-width:1.07"
       id="polygon11" />
    <polygon
       points="208.21,212.46 209.42,212.57 210.63,212.64 211.85,212.7 210.93,239.14 209.19,239.06 207.46,238.95 205.73,238.81 204,238.63 207,212.34 "
       style="fill:#c77cff;fill-opacity:0.8;stroke:#ffffff;stroke-width:1.07"
       id="polygon12" />
    <polygon
       points="194.85,237.09 193.35,236.74 191.85,236.37 190.36,235.97 188.87,235.54 187.39,235.09 185.92,234.61 184.46,234.1 183.01,233.57 181.57,233.02 180.14,232.43 178.72,231.83 177.3,231.2 175.9,230.54 174.52,229.86 173.14,229.16 171.78,228.43 170.43,227.68 169.09,226.9 167.77,226.1 166.46,225.28 165.16,224.44 163.88,223.57 162.62,222.68 161.37,221.77 160.14,220.84 158.92,219.88 157.72,218.91 156.54,217.91 155.38,216.89 154.23,215.86 153.11,214.8 152,213.72 150.91,212.63 149.84,211.51 148.79,210.38 147.76,209.22 146.75,208.05 145.76,206.87 144.79,205.66 143.84,204.44 142.92,203.2 142.01,201.95 141.13,200.68 140.27,199.4 139.43,198.1 138.62,196.78 137.83,195.45 137.06,194.11 136.32,192.76 135.6,191.39 134.9,190.01 134.23,188.62 133.58,187.21 132.96,185.8 132.36,184.37 131.79,182.94 131.25,181.49 130.72,180.04 130.23,178.57 129.76,177.1 129.31,175.62 128.89,174.13 128.5,172.64 128.14,171.14 127.8,169.63 127.48,168.12 127.2,166.6 126.94,165.07 126.7,163.55 126.5,162.01 126.32,160.48 126.16,158.94 126.04,157.4 125.94,155.86 125.87,154.31 125.82,152.77 125.81,151.22 125.82,149.68 125.85,148.13 125.92,146.59 126.01,145.05 126.12,143.5 126.27,141.97 126.44,140.43 126.64,138.9 126.87,137.37 127.12,135.84 127.4,134.32 127.7,132.81 128.03,131.3 128.39,129.8 128.78,128.3 129.19,126.81 129.63,125.33 130.09,123.85 130.58,122.38 131.09,120.93 131.63,119.48 132.2,118.04 132.79,116.61 133.4,115.19 134.04,113.79 134.71,112.39 135.39,111.01 136.11,109.64 136.84,108.28 137.6,106.93 138.39,105.6 139.2,104.28 140.03,102.98 140.88,101.69 141.75,100.42 142.65,99.16 143.57,97.92 144.51,96.69 145.47,95.48 146.46,94.29 147.46,93.11 148.49,91.96 149.53,90.82 150.6,89.7 151.68,88.59 152.78,87.51 153.91,86.45 155.05,85.41 156.2,84.38 157.38,83.38 158.57,82.4 159.79,81.44 161.01,80.5 162.26,79.58 163.52,78.68 164.79,77.81 166.08,76.96 167.39,76.13 168.7,75.33 170.04,74.54 171.38,73.79 172.74,73.05 174.12,72.34 175.5,71.65 176.9,70.99 178.31,70.35 179.72,69.74 181.15,69.15 182.59,68.59 184.04,68.05 185.5,67.54 186.97,67.05 188.44,66.59 189.93,66.16 191.42,65.75 192.91,65.36 194.42,65.01 195.93,64.68 197.44,64.37 198.96,64.1 200.49,63.85 202.02,63.62 203.55,63.43 205.09,63.26 206.63,63.11 208.17,63 209.71,62.91 211.25,62.85 212.8,62.81 214.35,62.81 215.89,62.83 217.44,62.87 218.98,62.95 220.52,63.05 222.06,63.18 223.6,63.33 225.14,63.51 226.67,63.72 228.19,63.96 229.72,64.22 231.24,64.51 232.75,64.82 234.26,65.16 235.76,65.53 237.25,65.93 238.74,66.35 240.22,66.79 241.69,67.27 243.15,67.76 244.61,68.29 246.05,68.84 247.49,69.41 248.91,70.01 250.33,70.63 251.73,71.28 253.12,71.96 254.5,72.65 255.87,73.38 257.22,74.12 258.56,74.89 259.89,75.68 261.2,76.5 262.5,77.34 263.78,78.2 265.05,79.08 266.3,79.99 267.54,80.92 268.76,81.86 269.96,82.83 271.15,83.83 272.32,84.84 273.47,85.87 274.6,86.92 275.71,87.99 276.81,89.08 277.88,90.19 278.94,91.32 279.97,92.47 280.99,93.64 281.98,94.82 282.96,96.02 283.91,97.24 284.84,98.47 285.75,99.72 286.64,100.98 287.51,102.26 288.35,103.56 289.17,104.87 289.97,106.19 290.74,107.53 291.49,108.88 292.21,110.25 292.92,111.63 293.59,113.01 294.25,114.41 294.88,115.83 295.48,117.25 271.04,127.37 270.61,126.38 270.17,125.39 269.72,124.41 269.24,123.44 268.75,122.47 268.24,121.52 267.72,120.57 267.18,119.64 266.62,118.71 266.04,117.79 265.45,116.88 264.85,115.99 264.23,115.1 263.59,114.23 262.94,113.36 262.27,112.51 261.59,111.67 260.89,110.85 260.18,110.03 259.46,109.23 258.72,108.44 257.96,107.66 257.2,106.9 256.42,106.15 255.63,105.41 254.82,104.69 254,103.98 253.17,103.28 252.33,102.61 251.48,101.94 250.61,101.29 249.73,100.66 248.85,100.04 247.95,99.44 247.04,98.85 246.12,98.28 245.19,97.72 244.25,97.19 243.31,96.66 242.35,96.16 241.38,95.67 240.41,95.2 239.43,94.74 238.44,94.31 237.44,93.89 236.44,93.49 235.43,93.1 234.41,92.73 233.38,92.39 232.35,92.06 231.32,91.74 230.28,91.45 229.23,91.17 228.18,90.91 227.12,90.68 226.06,90.45 225,90.25 223.94,90.07 222.87,89.9 221.79,89.76 220.72,89.63 219.64,89.52 218.57,89.43 217.49,89.36 216.41,89.31 215.32,89.28 214.24,89.26 213.16,89.27 212.08,89.29 211,89.34 209.92,89.4 208.84,89.48 207.76,89.58 206.69,89.7 205.61,89.84 204.54,89.99 203.47,90.17 202.41,90.36 201.35,90.57 200.29,90.81 199.24,91.05 198.19,91.32 197.15,91.61 196.11,91.91 195.08,92.24 194.05,92.58 193.03,92.93 192.01,93.31 191.01,93.71 190.01,94.12 189.01,94.55 188.03,94.99 187.05,95.46 186.08,95.94 185.12,96.44 184.17,96.95 183.23,97.48 182.29,98.03 181.37,98.59 180.46,99.17 179.55,99.77 178.66,100.38 177.78,101.01 176.91,101.65 176.05,102.31 175.2,102.98 174.37,103.67 173.54,104.37 172.73,105.08 171.93,105.81 171.15,106.56 170.38,107.32 169.62,108.09 168.87,108.87 168.14,109.67 167.42,110.48 166.72,111.3 166.03,112.14 165.36,112.98 164.7,113.84 164.06,114.71 163.43,115.59 162.82,116.48 162.22,117.39 161.64,118.3 161.07,119.22 160.52,120.15 159.99,121.09 159.48,122.05 158.98,123.01 158.49,123.97 158.03,124.95 157.58,125.94 157.15,126.93 156.74,127.93 156.34,128.94 155.96,129.95 155.6,130.97 155.26,132 154.94,133.03 154.63,134.07 154.34,135.11 154.07,136.16 153.82,137.21 153.59,138.27 153.38,139.33 153.18,140.39 153.01,141.46 152.85,142.53 152.71,143.6 152.59,144.68 152.49,145.75 152.4,146.83 152.34,147.91 152.3,148.99 152.27,150.07 152.26,151.16 152.28,152.24 152.31,153.32 152.36,154.4 152.43,155.48 152.51,156.56 152.62,157.64 152.75,158.71 152.89,159.78 153.06,160.85 153.24,161.92 153.44,162.98 153.66,164.04 153.89,165.1 154.15,166.15 154.43,167.19 154.72,168.24 155.03,169.27 155.36,170.3 155.71,171.33 156.07,172.35 156.45,173.36 156.86,174.36 157.27,175.36 157.71,176.35 158.16,177.33 158.63,178.31 159.12,179.27 159.62,180.23 160.14,181.18 160.68,182.12 161.23,183.05 161.8,183.97 162.39,184.88 162.99,185.78 163.61,186.67 164.24,187.54 164.89,188.41 165.55,189.26 166.23,190.11 166.92,190.94 167.63,191.76 168.35,192.56 169.09,193.36 169.84,194.14 170.6,194.91 171.37,195.66 172.16,196.4 172.97,197.13 173.78,197.84 174.61,198.53 175.45,199.22 176.3,199.89 177.16,200.54 178.03,201.18 178.92,201.8 179.81,202.41 180.72,203 181.64,203.57 182.56,204.13 183.5,204.67 184.44,205.2 185.4,205.71 186.36,206.2 187.33,206.68 188.31,207.14 189.3,207.58 190.3,208 191.3,208.41 192.31,208.8 193.32,209.17 194.35,209.52 195.38,209.86 196.41,210.18 197.45,210.48 198.49,210.76 199.54,211.02 200.6,211.26 201.66,211.49 202.72,211.7 203.78,211.88 204.85,212.05 205.92,212.21 207,212.34 204,238.63 202.46,238.44 200.93,238.22 199.4,237.98 197.88,237.71 196.37,237.41 "
       style="fill:#ff61cc;fill-opacity:0.8;stroke:#ffffff;stroke-width:1.07"
       id="polygon13" />
    <line
       x1="295.66"
       y1="117.67"
       x2="299.73999"
       y2="116.01"
       style="stroke-width:1.07;stroke-linecap:butt"
       id="line13" />
    <line
       x1="297.64001"
       y1="123.02"
       x2="301.82001"
       y2="121.62"
       style="stroke-width:1.07;stroke-linecap:butt"
       id="line14" />
    <line
       x1="299.66"
       y1="130.02"
       x2="303.95001"
       y2="128.98"
       style="stroke-width:1.07;stroke-linecap:butt"
       id="line15" />
    <line
       x1="298.72"
       y1="175.5"
       x2="302.95999"
       y2="176.73"
       style="stroke-width:1.07;stroke-linecap:butt"
       id="line16" />
    <line
       x1="275.94"
       y1="213.78"
       x2="279.04001"
       y2="216.92"
       style="stroke-width:1.07;stroke-linecap:butt"
       id="line17" />
    <line
       x1="245.55"
       y1="233.36"
       x2="247.13"
       y2="237.47"
       style="stroke-width:1.07;stroke-linecap:butt"
       id="line18" />
    <line
       x1="207.46001"
       y1="238.95"
       x2="207.13"
       y2="243.35001"
       style="stroke-width:1.07;stroke-linecap:butt"
       id="line19" />
    <line
       x1="143.57001"
       y1="97.919998"
       x2="140.05"
       y2="95.260002"
       style="stroke-width:1.07;stroke-linecap:butt"
       id="line20" />
    <text
       x="299.73999"
       y="116.01"
       style="font-size:11.38px;font-family:Arial"
       textLength="123.3"
       lengthAdjust="spacingAndGlyphs"
       id="text20"
       transform="translate(-0.70187756,-6.1414287)">Bare / sparse vegetation</text>
    <text
       x="301.82001"
       y="121.62"
       style="font-size:11.38px;font-family:Arial"
       textLength="38.580002"
       lengthAdjust="spacingAndGlyphs"
       id="text21"
       transform="translate(0.24815119,2.2333607)">Built-up</text>
    <text
       x="303.95001"
       y="128.98"
       style="font-size:11.38px;font-family:Arial"
       textLength="46.169998"
       lengthAdjust="spacingAndGlyphs"
       id="text22"
       transform="translate(0.0877347,6.9310409)">Cropland</text>
    <text
       x="302.95999"
       y="184.87"
       style="font-size:11.38px;font-family:Arial"
       textLength="51.84"
       lengthAdjust="spacingAndGlyphs"
       id="text23">Grassland</text>
    <text
       x="302.95999"
       y="201.25999"
       style="font-size:11.38px;font-family:Arial"
       textLength="46.139999"
       lengthAdjust="spacingAndGlyphs"
       id="text24">(15.87%)</text>
    <text
       x="279.04001"
       y="225.06"
       style="font-size:11.38px;font-family:Arial"
       textLength="103.72"
       lengthAdjust="spacingAndGlyphs"
       id="text25">Herbaceous wetland</text>
    <text
       x="247.13"
       y="245.62"
       style="font-size:11.38px;font-family:Arial"
       textLength="56.27"
       lengthAdjust="spacingAndGlyphs"
       id="text26">Mangroves</text>
    <text
       x="247.13"
       y="262.01001"
       style="font-size:11.38px;font-family:Arial"
       textLength="46.139999"
       lengthAdjust="spacingAndGlyphs"
       id="text27">(12.76%)</text>
    <text
       x="207.13"
       y="251.49001"
       text-anchor="end"
       style="font-size:11.38px;font-family:Arial"
       textLength="51.880001"
       lengthAdjust="spacingAndGlyphs"
       id="text28">Shrubland</text>
    <text
       x="140.05"
       y="78.870003"
       text-anchor="end"
       style="font-size:11.38px;font-family:Arial"
       textLength="53.939999"
       lengthAdjust="spacingAndGlyphs"
       id="text29">Tree cover</text>
    <text
       x="140.05"
       y="95.260002"
       text-anchor="end"
       style="font-size:11.38px;font-family:Arial"
       textLength="46.139999"
       lengthAdjust="spacingAndGlyphs"
       id="text30">(66.94%)</text>
  </g>
</svg>
