<?xml version="1.0" encoding="UTF-8" standalone="no"?>
<svg
   viewBox="0 0 200 200"
   version="1.1"
   id="svg12"
   sodipodi:docname="msp_logo_OG.svg"
   xml:space="preserve"
   inkscape:version="1.4 (86a8ad7, 2024-10-11)"
   inkscape:export-filename="msp_logo.png"
   inkscape:export-xdpi="300"
   inkscape:export-ydpi="300"
   xmlns:inkscape="http://www.inkscape.org/namespaces/inkscape"
   xmlns:sodipodi="http://sodipodi.sourceforge.net/DTD/sodipodi-0.dtd"
   xmlns="http://www.w3.org/2000/svg"
   xmlns:svg="http://www.w3.org/2000/svg"><sodipodi:namedview
     id="namedview12"
     pagecolor="#ffffff"
     bordercolor="#000000"
     borderopacity="0.25"
     inkscape:showpageshadow="2"
     inkscape:pageopacity="0.0"
     inkscape:pagecheckerboard="0"
     inkscape:deskcolor="#d1d1d1"
     inkscape:zoom="3.0425"
     inkscape:cx="-13.47576"
     inkscape:cy="97.78143"
     inkscape:window-width="2560"
     inkscape:window-height="1494"
     inkscape:window-x="-11"
     inkscape:window-y="-11"
     inkscape:window-maximized="1"
     inkscape:current-layer="svg12" /><!-- Background circle --><circle
     cx="100"
     cy="100"
     r="95"
     fill="#e8f4f8"
     stroke="#0064c8"
     stroke-width="2"
     id="circle1"
     style="display:inline;stroke-width:6;stroke-dasharray:none" /><!-- Water waves at bottom --><path
     d="m 20,130 q 20,-10 40,0 20,10 40,0 20,-10 40,0 20,10 40,0"
     fill="none"
     stroke="#0096a0"
     stroke-width="2.5"
     stroke-linecap="round"
     id="path1"
     style="display:inline;stroke-width:5;stroke-dasharray:none" /><path
     d="m 20,141 q 20,-10 40,0 20,10 40,0 20,-10 40,0 20,10 40,0"
     fill="none"
     stroke="#0064c8"
     stroke-width="2"
     stroke-linecap="round"
     id="path2"
     style="display:inline;stroke-width:5;stroke-dasharray:none" /><!-- Land/coast outline --><path
     d="m 30,130 20,-30 20,15 20,-20 20,15 20,-20 20,15 20,25"
     fill="#90ee90"
     stroke="#228b22"
     stroke-width="1.5"
     opacity="0.8"
     id="path3"
     style="display:none" /><!-- Tree/vegetation elements --><circle
     cx="24.293344"
     cy="107.88825"
     r="6"
     fill="#006400"
     id="circle3"
     style="display:inline;fill:#0064c8;fill-opacity:1" /><circle
     cx="75"
     cy="105"
     r="5"
     fill="#228B22"
     id="circle4" /><circle
     cx="105"
     cy="90"
     r="6"
     fill="#006400"
     id="circle5" /><circle
     cx="174.79047"
     cy="104.34264"
     r="5"
     fill="#006400"
     id="circle7"
     style="display:inline;fill:#0064c8;fill-opacity:1" /><!-- Compass rose / directional indicator (center) --><line
     x1="100"
     y1="42"
     x2="100"
     y2="28"
     stroke="#fa0000"
     stroke-width="2"
     stroke-linecap="round"
     id="line8"
     style="display:none" /><line
     x1="100"
     y1="68"
     x2="100"
     y2="82"
     stroke="#000000"
     stroke-width="1.5"
     stroke-linecap="round"
     id="line9"
     style="display:none" /><line
     x1="87"
     y1="55"
     x2="73"
     y2="55"
     stroke="#000000"
     stroke-width="1.5"
     stroke-linecap="round"
     id="line10"
     style="display:none" /><line
     x1="113"
     y1="55"
     x2="127"
     y2="55"
     stroke="#000000"
     stroke-width="1.5"
     stroke-linecap="round"
     id="line11"
     style="display:none" /><!-- Small diamond/planning symbol --><polygon
     points="105,50 100,55 95,50 100,45 "
     fill="#0064c8"
     id="polygon11"
     style="display:none" /><!-- Text arc (Marine Spatial Planning) --><defs
     id="defs11"><path
       id="arcPath"
       d="M 30 100 A 70 70 0 0 1 170 100"
       fill="none" /></defs><text
     font-size="11px"
     font-weight="bold"
     fill="#228b22"
     letter-spacing="2"
     id="text11"
     style="font-size:16px;display:inline;fill:#0096a0;fill-opacity:1"><textPath
       href="#arcPath"
       startOffset="50%"
       text-anchor="middle"
       id="textPath11"
       style="font-style:normal;font-variant:normal;font-weight:900;font-stretch:normal;font-size:14.6667px;font-family:'Proxima Nova Condensed';-inkscape-font-specification:'Proxima Nova Condensed,  Heavy';fill:#0096a0;fill-opacity:1">MARINE SPATIAL PLANNING</textPath></text><!-- Bottom text (Tanzania) --><text
     x="100"
     y="163.44043"
     font-size="10"
     font-weight="bold"
     fill="#0064c8"
     text-anchor="middle"
     letter-spacing="1"
     id="text12"
     style="font-size:16px;line-height:0.9;letter-spacing:1px;fill:#0096a0;fill-opacity:1"><tspan
       sodipodi:role="line"
       id="tspan13"
       x="100"
       y="163.44043"
       style="font-style:normal;font-variant:normal;font-weight:900;font-stretch:normal;line-height:0.9;font-family:'Proxima Nova Condensed';-inkscape-font-specification:'Proxima Nova Condensed,  Heavy';letter-spacing:1px;fill:#0096a0;fill-opacity:1">MKOANI &amp;</tspan><tspan
       sodipodi:role="line"
       id="tspan14"
       x="100.5"
       y="177.92242"
       style="font-style:normal;font-variant:normal;font-weight:900;font-stretch:normal;line-height:0.9;font-family:'Proxima Nova Condensed';-inkscape-font-specification:'Proxima Nova Condensed,  Heavy';letter-spacing:1px;fill:#0096a0;fill-opacity:1">MKURANGA</tspan></text><g
     id="g12"
     transform="matrix(0.08377026,0,0,0.08377026,48.047264,38.071387)"><path
       d="m 1079.8211,473.95961 c 0,294.66947 -238.87538,533.54479 -533.54485,533.54479 -294.66947,0 -533.557672,-238.87533 -533.557672,-533.54479 0,0 140.416672,-102.71101 275.386262,9.7508 134.96959,112.46181 285.2013,-7.96508 285.2013,-7.96508 0,0 132.00195,-111.17712 262.65498,0 122.94488,104.65089 243.85998,-1.78572 243.85998,-1.78572 z"
       fill="#178e3b"
       id="path1-0"
       style="fill:#00ccff;fill-opacity:1" /><path
       d="M 560.52347,1023.9999 A 560.12507,560.12507 0 0 1 1.41e-4,463.47653 26.978501,26.978501 0 0 1 11.04848,441.70103 c 1.61871,-1.18192 40.300742,-29.14963 97.1226,-41.85522 53.32751,-11.92193 133.31234,-12.47434 211.46007,52.67231 48.62553,40.51914 105.24184,51.63171 168.29446,33.04224 47.32799,-13.95174 80.39593,-39.49138 82.6056,-41.23856 4.30371,-3.54575 40.01811,-32.11727 92.00953,-46.69851 51.38762,-14.46561 128.57183,-17.98566 205.12654,47.10961 43.11421,36.69076 90.62207,47.97034 141.20032,33.54327 a 196.18509,196.18509 0 0 0 67.4591,-35.0849 26.978501,26.978501 0 0 1 44.7329,20.31096 560.12507,560.12507 0 0 1 -560.53613,560.49767 z M 54.162694,478.21193 c 7.823765,272.53425 231.963726,491.83093 506.360776,491.83093 262.20534,0 478.52153,-200.24472 504.04833,-455.84675 a 242.80651,242.80651 0 0 1 -38.6563,15.27498 C 977.91942,543.70546 905.42434,547.688 832.68516,485.79161 786.26929,446.28737 734.52195,433.92865 678.89485,449.03661 a 217.58804,217.58804 0 0 0 -74.06241,36.89631 l -0.43679,0.35972 c -1.70864,1.36177 -42.39479,33.63319 -101.22077,50.97652 -80.25461,23.664 -155.66595,8.67166 -218.10191,-43.33261 C 235.86932,452.94207 180.30646,438.99033 119.926,452.49243 a 240.32706,240.32706 0 0 0 -65.763306,25.7195 z"
       fill="#203529"
       id="path2-9"
       style="stroke-width:3.39022;stroke-dasharray:none" /><path
       d="m 913.18387,447.71338 a 46.647113,46.647113 0 0 1 -11.56222,-1.40031 39.465693,39.465693 0 0 1 -25.86082,-20.64498 c -6.08943,-11.85769 -4.86898,-26.59309 4.48357,-54.16255 1.28469,-3.85407 2.64646,-7.56683 3.85407,-10.99695 C 759.48349,232.41209 728.88216,224.81957 690.44422,215.33855 c -4.5478,-1.13052 -9.28831,-2.29959 -14.3243,-3.66136 a 26.978501,26.978501 0 0 1 -19.68146,25.69381 111.10004,111.10004 0 0 1 -30.08745,4.25232 c -27.56946,0 -53.81569,-10.88133 -76.00229,-31.91171 a 160.41931,160.41931 0 0 1 -26.19484,-32.7853 c -9.90497,-0.55242 -33.40196,1.28469 -77.45399,20.41373 -11.02265,4.7919 -29.20102,12.70559 -46.04331,12.70559 -11.2025,0 -21.83974,-3.49436 -29.32949,-13.74619 -15.26212,-20.79914 0.57811,-45.25964 5.79396,-53.30181 3.30165,-5.13876 6.78316,-9.7508 9.46817,-13.15523 9.91781,-41.367035 32.84953,-73.56138 68.26845,-95.747985 91.36719,-57.20727 238.0917,-26.657329 266.84307,-19.88701 42.07362,-3.648521 66.80391,1.361772 79.74074,16.071479 a 32.952312,32.952312 0 0 1 7.9137,28.828456 26.978501,26.978501 0 0 1 -2.7107,7.091491 c 89.14468,61.459599 146.45472,209.700039 163.1557,257.541909 74.70472,18.56378 113.73362,49.76891 115.46802,51.16923 a 26.978501,26.978501 0 0 1 -16.8166,47.91895 l -87.5517,0.6295 a 26.862879,26.862879 0 0 1 -5.79395,-0.59096 q -0.71943,0.57811 -1.47739,1.10484 a 187.0124,187.0124 0 0 1 -21.83974,12.8469 c -14.64547,7.29704 -27.3896,10.89418 -38.60495,10.89418 z M 1051.3523,416.88081 Z M 620.39005,138.62968 a 53.224729,53.224729 0 0 1 9.13415,0.83505 c 8.11924,1.41316 18.06275,4.62489 31.29506,10.09767 16.70097,6.93733 29.95898,10.21329 42.70311,13.37363 22.90603,5.67833 46.59573,11.56221 82.2202,35.97133 30.31869,20.87622 68.57678,54.79205 119.01373,105.57587 C 880.83536,245.38747 834.97191,150.32037 774.66853,109.73699 l -0.95067,-0.66804 C 755.55234,95.669632 745.96855,81.56373 745.12065,67.008186 c -5.87104,0 -13.36078,0.398254 -22.8161,1.284691 a 26.978501,26.978501 0 0 1 -9.41679,-0.732274 C 711.42322,67.188043 563.1057,29.842089 483.41634,79.855092 460.29191,94.359248 445.78776,114.72159 439.14591,142.02127 515.41798,111.77965 547.27831,124.4467 557.64576,131.66666 a 26.002136,26.002136 0 0 1 9.13415,10.86848 106.82202,106.82202 0 0 0 20.72206,27.98056 29.676351,29.676351 0 0 1 4.74051,-17.33047 c 3.63567,-5.8068 11.832,-14.55555 28.14757,-14.55555 z M 797.60026,58.349372 Z"
       fill="#203529"
       id="path3-4" /><path
       d="m 546.2634,90.505176 m -13.14238,0 a 13.142385,13.142385 0 1 0 26.28477,0 13.142385,13.142385 0 1 0 -26.28477,0 z"
       fill="#203529"
       id="path4" /><path
       d="m 824.51453,373.31695 a 13.45071,13.45071 0 0 1 -9.95636,-4.38079 c -0.69373,-0.75797 -62.55158,-66.99661 -148.03489,-64.76125 a 13.493876,13.493876 0 1 1 -0.70658,-26.9785 c 98.11182,-2.56939 165.82786,70.42673 168.66702,73.53568 a 13.489251,13.489251 0 0 1 -9.96919,22.57201 z M 575.5415,388.41206 a 13.489251,13.489251 0 0 1 -8.1064,-24.28065 c 64.7741,-48.57415 185.7791,-12.42295 190.89217,-10.86848 a 13.49208,13.49208 0 0 1 -7.87515,25.80943 c -1.11768,-0.34686 -113.05277,-33.71028 -166.84276,6.64185 a 13.425016,13.425016 0 0 1 -8.06786,2.69785 z m 492.7174,-45.0284 h -0.3726 a 13.489251,13.489251 0 0 1 -13.1552,-13.86181 c 0.8736,-32.11726 -27.5053,-96.58303 -38.5407,-118.70541 a 13.489251,13.489251 0 1 1 24.1521,-12.01185 c 1.7344,3.49436 42.5618,86.07426 41.3285,131.44953 a 13.489251,13.489251 0 0 1 -13.4121,13.12954 z M 515.67492,667.88364 A 270.49159,270.49159 0 0 1 440.50768,656.65545 C 382.14419,639.77461 340.76431,609.99549 339.01713,608.73649 a 13.493465,13.493465 0 0 1 15.85308,-21.83974 336.39622,336.39622 0 0 0 93.85949,44.03919 c 70.56805,20.22103 131.75786,10.11052 181.86079,-30.03606 50.91229,-40.78893 115.22389,-48.35575 186.01034,-21.83974 a 338.64442,338.64442 0 0 1 90.60923,51.61886 13.495496,13.495496 0 1 1 -17.35617,20.67068 316.76614,316.76614 0 0 0 -83.35073,-47.23807 c -61.98631,-23.0602 -115.49367,-16.99646 -159.01899,17.85719 -38.03969,30.47286 -82.74692,45.91484 -131.80925,45.91484 z"
       fill="#203529"
       id="path5" /><path
       d="m 463.40086,802.08242 c -54.04693,0 -113.7465,-11.93478 -153.08372,-46.35164 -70.73506,-61.88354 -140.46806,-13.65626 -143.41001,-11.56221 a 13.489251,13.489251 0 0 1 -15.72461,-21.91682 150.10324,150.10324 0 0 1 55.42155,-22.37931 c 30.33155,-5.71688 76.02799,-4.18809 121.46749,35.56023 47.328,41.40558 131.44954,44.96417 189.10645,35.36753 44.25759,-7.33558 70.7736,-21.71127 76.68318,-31.95025 a 13.489251,13.489251 0 0 1 23.36852,13.4764 c -16.82945,29.16248 -72.48224,41.23857 -95.63237,45.07979 a 359.93175,359.93175 0 0 1 -58.19648,4.67628 z"
       fill="#2fa65b"
       id="path6"
       style="fill:#0064c8;fill-opacity:1" /><path
       d="m 849.87432,861.21672 a 13.425016,13.425016 0 0 1 -7.13004,-2.0555 c -0.56526,-0.34687 -26.70871,-16.31557 -64.81263,-24.52475 -50.41126,-10.84278 -97.09691,-3.67421 -138.74658,21.31302 a 13.489251,13.489251 0 1 1 -13.87466,-23.12443 c 47.328,-28.39166 102.41553,-36.80638 159.30163,-24.33204 42.65172,9.35255 71.23609,27.05558 72.43085,27.8007 a 13.489251,13.489251 0 0 1 -7.16857,24.923 z"
       fill="#203529"
       id="path7" /></g></svg>
