<?xml version="1.0" encoding="UTF-8" standalone="no"?>
<svg
   viewBox="0 0 200 200"
   version="1.1"
   id="svg12"
   sodipodi:docname="msp_logo.svg"
   xml:space="preserve"
   inkscape:version="1.4 (86a8ad7, 2024-10-11)"
   inkscape:export-filename="msp_logo.png"
   inkscape:export-xdpi="300"
   inkscape:export-ydpi="300"
   xmlns:inkscape="http://www.inkscape.org/namespaces/inkscape"
   xmlns:sodipodi="http://sodipodi.sourceforge.net/DTD/sodipodi-0.dtd"
   xmlns="http://www.w3.org/2000/svg"
   xmlns:svg="http://www.w3.org/2000/svg"><sodipodi:namedview
     id="namedview12"
     pagecolor="#ffffff"
     bordercolor="#000000"
     borderopacity="0.25"
     inkscape:showpageshadow="2"
     inkscape:pageopacity="0.0"
     inkscape:pagecheckerboard="0"
     inkscape:deskcolor="#d1d1d1"
     inkscape:zoom="4.3027448"
     inkscape:cx="120.85309"
     inkscape:cy="137.23798"
     inkscape:window-width="2560"
     inkscape:window-height="1494"
     inkscape:window-x="-11"
     inkscape:window-y="-11"
     inkscape:window-maximized="1"
     inkscape:current-layer="svg12" /><!-- Background circle --><circle
     cx="100"
     cy="100"
     r="95"
     fill="#e8f4f8"
     stroke="#0064c8"
     stroke-width="2"
     id="circle1"
     style="display:inline;stroke-width:6;stroke-dasharray:none" /><!-- Water waves at bottom --><path
     d="m 20,130 q 20,-10 40,0 20,10 40,0 20,-10 40,0 20,10 40,0"
     fill="none"
     stroke="#0096a0"
     stroke-width="2.5"
     stroke-linecap="round"
     id="path1"
     style="display:inline;stroke-width:5;stroke-dasharray:none" /><path
     d="m 20,141 q 20,-10 40,0 20,10 40,0 20,-10 40,0 20,10 40,0"
     fill="none"
     stroke="#0064c8"
     stroke-width="2"
     stroke-linecap="round"
     id="path2"
     style="display:inline;stroke-width:5;stroke-dasharray:none" /><!-- Land/coast outline --><path
     d="m 30,130 20,-30 20,15 20,-20 20,15 20,-20 20,15 20,25"
     fill="#90ee90"
     stroke="#228b22"
     stroke-width="1.5"
     opacity="0.8"
     id="path3"
     style="display:none" /><!-- Tree/vegetation elements --><circle
     cx="24.293344"
     cy="107.88825"
     r="6"
     fill="#006400"
     id="circle3"
     style="display:inline;fill:#0064c8;fill-opacity:1" /><circle
     cx="75"
     cy="105"
     r="5"
     fill="#228B22"
     id="circle4" /><circle
     cx="105"
     cy="90"
     r="6"
     fill="#006400"
     id="circle5" /><circle
     cx="174.79047"
     cy="104.34264"
     r="5"
     fill="#006400"
     id="circle7"
     style="display:inline;fill:#0064c8;fill-opacity:1" /><!-- Compass rose / directional indicator (center) --><line
     x1="100"
     y1="42"
     x2="100"
     y2="28"
     stroke="#fa0000"
     stroke-width="2"
     stroke-linecap="round"
     id="line8"
     style="display:none" /><line
     x1="100"
     y1="68"
     x2="100"
     y2="82"
     stroke="#000000"
     stroke-width="1.5"
     stroke-linecap="round"
     id="line9"
     style="display:none" /><line
     x1="87"
     y1="55"
     x2="73"
     y2="55"
     stroke="#000000"
     stroke-width="1.5"
     stroke-linecap="round"
     id="line10"
     style="display:none" /><line
     x1="113"
     y1="55"
     x2="127"
     y2="55"
     stroke="#000000"
     stroke-width="1.5"
     stroke-linecap="round"
     id="line11"
     style="display:none" /><!-- Small diamond/planning symbol --><polygon
     points="105,50 100,55 95,50 100,45 "
     fill="#0064c8"
     id="polygon11"
     style="display:none" /><!-- Text arc (Marine Spatial Planning) --><defs
     id="defs11"><path
       id="arcPath"
       d="M 30 100 A 70 70 0 0 1 170 100"
       fill="none" /></defs><path
     style="font-weight:900;font-size:14.6667px;font-family:'Proxima Nova Condensed';-inkscape-font-specification:'Proxima Nova Condensed,  Heavy';letter-spacing:2;text-anchor:middle;fill:#0096a0"
     d="m 30.813101,88.213344 -9.737296,-0.941307 -0.348581,3.605865 4.152288,1.860175 -4.428894,1.00116 -0.351403,3.635062 9.737297,0.941308 0.266727,-2.759144 -5.270111,-0.509463 5.440873,-1.256973 0.101611,-1.051102 -5.097938,-2.290499 5.270111,0.509464 z m 2.938693,-11.276627 -10.195044,0.160705 -0.896014,3.236951 8.661257,5.380278 0.802108,-2.897708 -1.141282,-0.605062 0.676901,-2.445382 1.289966,0.06793 z m -4.569146,2.707183 -0.387359,1.399381 -2.928234,-1.57147 z m 8.637511,-12.04115 -3.976948,-0.135238 c -0.06915,-0.739 -0.493876,-1.83129 -1.991497,-2.506196 -1.644708,-0.741193 -3.486729,-0.187804 -4.318311,1.657479 l -1.77163,3.931253 8.918864,4.019312 1.138905,-2.527235 -2.888268,-1.301606 0.289246,-0.641837 3.340215,0.298735 z m -6.643254,1.140616 -0.451946,1.002871 -1.617965,-0.729141 0.451946,-1.002871 c 0.204883,-0.454634 0.641042,-0.70852 1.175906,-0.467482 0.534864,0.241038 0.646942,0.741988 0.442059,1.196623 z m 9.647505,-6.162221 -8.370209,-5.063655 -1.434829,2.371769 8.370209,5.063654 z m 6.773492,-9.164344 -7.670028,-6.072205 -1.72061,2.173366 3.311796,2.621882 -4.804812,-0.735998 -1.747921,2.207865 7.670028,6.072205 1.72061,-2.173367 -3.541782,-2.803956 5.153147,0.768582 z m 6.875807,-6.686174 -1.654755,-1.765846 -2.482887,2.326686 -0.902593,-0.963189 2.407972,-2.256484 -1.654756,-1.765846 -2.407972,2.256484 -0.822363,-0.877572 2.482887,-2.326686 -1.654755,-1.765846 -4.505583,4.222133 6.689222,7.138299 z m 9.263993,-6.400046 c 1.943592,-1.179204 2.493096,-2.987929 1.45844,-4.693274 -1.711747,-2.821342 -5.187959,-0.266245 -5.720503,-1.143996 -0.152155,-0.250786 -0.110869,-0.550315 0.328007,-0.816587 0.626965,-0.380388 1.433419,-0.57804 2.266635,-0.448827 l 0.01329,-2.40977 c -1.120207,-0.178107 -2.328761,0.09195 -3.432219,0.761437 -2.056445,1.247673 -2.303323,3.215891 -1.481684,4.570135 1.810648,2.984353 5.213038,0.25103 5.776013,1.178938 0.190194,0.313483 -0.02171,0.699374 -0.460587,0.965646 -0.815054,0.494505 -1.792969,0.607478 -2.614067,0.385138 l -0.0079,2.475142 c 1.178393,0.245735 2.432593,0.05091 3.874612,-0.823982 z m 8.224089,-4.471084 -1.253081,-2.909649 1.34706,-0.58013 c 2.061001,-0.8876 2.47563,-2.742911 1.779474,-4.359383 -0.701958,-1.629942 -2.33486,-2.603456 -4.395862,-1.715857 l -3.893002,1.676577 3.869469,8.984888 z m -1.17306,-5.578998 -1.037236,0.4467 -0.701957,-1.629942 1.037236,-0.4467 c 0.471471,-0.203046 0.930063,-0.0652 1.156314,0.460157 0.232052,0.538824 0.01711,0.966739 -0.454357,1.169785 z m 15.58051,0.883876 -5.341416,-8.685277 -3.240933,0.881501 -0.206384,10.194222 2.901273,-0.789117 -0.06215,-1.290256 2.448391,-0.665938 0.599942,1.143982 z m -4.660002,-2.547609 -1.401102,0.381085 -0.143079,-3.32018 z m 10.807622,1.770272 -0.933222,-7.303301 1.993132,-0.254685 -0.306736,-2.400487 -6.76501,0.864439 0.306736,2.400487 2.007681,-0.256543 0.933222,7.303301 z m 7.736939,-0.400297 -0.1582,-9.78141 -2.771645,0.04483 0.158202,9.78141 z m 11.59815,0.87376 -1.8355,-10.02974 -3.34025,-0.351362 -3.8823,9.428283 2.99018,0.314538 0.40909,-1.225263 2.52342,0.265439 0.14518,1.283567 z m -3.42189,-4.061602 -1.44404,-0.151899 1.0684,-3.146839 z m 11.5198,6.033479 0.58639,-2.347887 -2.9313,-0.732099 1.78404,-7.143269 -2.6894,-0.671682 -2.37043,9.491156 z m 10.07827,3.930735 1.39031,-2.846634 1.31788,0.643659 c 2.01637,0.984799 3.6938,0.0902 4.4662,-1.491263 0.77882,-1.594643 0.45307,-3.467604 -1.56329,-4.452403 l -3.80869,-1.860175 -4.29321,8.7903 z m 3.46712,-4.525528 -1.01478,-0.495618 0.77883,-1.594642 1.01477,0.495618 c 0.46126,0.22528 0.65557,0.662951 0.40454,1.176927 -0.25746,0.527154 -0.7221,0.642996 -1.18336,0.417715 z m 8.14364,11.40916 1.35118,-2.007669 -2.50655,-1.68693 4.11087,-6.108181 -2.29969,-1.547717 -5.46205,8.115851 z m 8.54943,7.344365 4.40301,-9.196645 -2.49759,-2.245602 -8.67837,5.352644 2.23584,2.010255 1.05055,-0.751643 1.88683,1.696459 -0.63611,1.124277 z m -0.38526,-5.296933 -1.07975,-0.970807 2.71248,-1.920033 z m 7.13192,13.38661 7.60552,-6.152811 -1.74345,-2.155087 -3.28395,2.656686 1.77111,-4.526709 -1.77112,-2.189295 -7.60552,6.15281 1.74345,2.155088 3.51199,-2.841178 -1.87924,4.859434 z m 5.88204,9.774487 8.50262,-4.838019 -1.37089,-2.409289 -3.6713,2.08898 2.48174,-4.17958 -1.39265,-2.447531 -8.50263,4.838019 1.3709,2.409288 3.92624,-2.234047 -2.64239,4.490365 z m 2.40967,5.700675 9.04166,-3.7349 -1.05832,-2.562029 -9.04165,3.7349 z m 3.35997,10.889266 9.43827,-2.572952 -0.72906,-2.674412 -4.0753,1.11096 3.44267,-3.431614 -0.74064,-2.716863 -9.43827,2.572951 0.72906,2.674412 4.35831,-1.188109 -3.67553,3.692718 z m 0.8713,7.409316 c 0.17289,1.618797 0.95221,2.700822 2.08734,3.523594 l 4.18554,-0.44703 -0.42055,-3.937615 -2.42091,0.258561 0.1433,1.341706 -0.65627,0.07009 c -0.24367,-0.209977 -0.43624,-0.631913 -0.48297,-1.069426 -0.10124,-0.947944 0.6261,-1.733633 2.4199,-1.925217 1.80839,-0.193142 2.67068,0.422769 2.77192,1.370713 0.0748,0.70002 -0.46341,1.185253 -1.05568,1.440261 l 1.2477,2.153008 c 1.31948,-0.627678 2.45063,-1.913748 2.24347,-3.853388 -0.2866,-2.683411 -2.44543,-4.252354 -5.50802,-3.925259 -3.03342,0.32398 -4.84293,2.302005 -4.55477,5 z"
     id="text11"
     aria-label="MARINE SPATIAL PLANNING"
     sodipodi:nodetypes="cccccccccccccccccccccccccccccsscccccccsccsssccccccccccccccccccccccccccccccsssccssssccccccssscccsccssscccccccccccccccccccccccccccccccccccccccccccccccccssscccsccsssccccccccccccccccccccccccccccccccccccccccccccccccccccccccccsccccccsssccssss" /><!-- Bottom text (Tanzania) --><path
     style="font-weight:900;font-size:16px;line-height:0.9;font-family:'Proxima Nova Condensed';-inkscape-font-specification:'Proxima Nova Condensed,  Heavy';letter-spacing:1px;text-anchor:middle;fill:#0096a0"
     d="m 73.640003,163.44043 v -10.672 h -3.952 l -1.584,4.704 -1.552,-4.704 h -3.984 v 10.672 h 3.024 v -5.776 l 1.936,5.776 h 1.152 l 1.952,-5.776 v 5.776 z m 11.512002,0 -3.44,-5.712 3.264,-4.96 h -3.504 l -2.272,4.16 v -4.16 h -3.024 v 10.672 h 3.024 v -2.576 l 0.608,-1.072 1.792,3.648 z m 5.415995,0.192 c 2.976,0 4.864,-2.272 4.864,-5.52 0,-3.264 -1.888,-5.52 -4.864,-5.52 -2.976,0 -4.864,2.256 -4.864,5.52 0,3.248 1.888,5.52 4.864,5.52 z m 0,-2.672 c -1.152,0 -1.776,-1.2 -1.776,-2.848 0,-1.664 0.624,-2.848 1.776,-2.848 1.152,0 1.792,1.184 1.792,2.848 0,1.648 -0.64,2.848 -1.792,2.848 z m 15.544,2.48 -3.136,-10.672 h -3.664004 l -3.136,10.672 h 3.28 l 0.304,-1.376 H 102.528 l 0.304,1.376 z m -4.176,-4.016 h -1.584 l 0.8,-3.536 z m 14.472,4.016 v -10.672 h -3.024 v 4.608 l -2.624,-4.608 h -3.072 v 10.672 h 3.024 v -4.928 l 2.832,4.928 z m 5.56001,0 v -10.672 h -3.024 v 10.672 z m 15.424,0 c -0.64,-0.784 -1.2,-1.504 -1.744,-2.192 0.528,-0.752 0.944,-1.6 1.296,-2.496 l -2.096,-0.992 c -0.144,0.528 -0.352,1.072 -0.608,1.6 l -0.48,-0.688 c -0.16,-0.224 -0.336,-0.496 -0.512,-0.768 1.136,-0.592 2.256,-1.296 2.256,-2.848 0,-1.456 -1.344,-2.448 -2.848,-2.448 -1.744,0 -3.008,1.152 -3.008,2.672 0,0.64 0.24,1.392 0.592,2.144 -1.056,0.608 -2,1.456 -2,3.024 0,2.096 1.44,3.184 3.264,3.184 0.912,0 1.712,-0.256 2.4,-0.688 l 0.4,0.496 z m -5.376,-1.888 c -0.576,0 -1.04,-0.624 -1.04,-1.328 0,-0.368 0.112,-0.672 0.304,-0.944 0.208,0.352 0.432,0.688 0.656,1.008 0.208,0.32 0.464,0.688 0.752,1.072 -0.224,0.128 -0.448,0.192 -0.672,0.192 z m 0.128,-6.24 c 0,-0.512 0.208,-0.816 0.576,-0.816 0.288,0 0.512,0.256 0.512,0.688 0,0.496 -0.352,0.832 -0.848,1.136 -0.144,-0.368 -0.24,-0.72 -0.24,-1.008 z"
     id="path8" /><path
     style="font-weight:900;font-size:16px;line-height:0.9;font-family:'Proxima Nova Condensed';-inkscape-font-specification:'Proxima Nova Condensed,  Heavy';letter-spacing:1px;text-anchor:middle;fill:#0096a0"
     d="m 67.771992,177.92243 v -10.672 h -3.952 l -1.584,4.704 -1.552,-4.704 h -3.984 v 10.672 h 3.024 v -5.776 l 1.936,5.776 h 1.152 l 1.952,-5.776 v 5.776 z m 11.512001,0 -3.44,-5.712 3.264,-4.96 h -3.504 l -2.272,4.16 v -4.16 h -3.024 v 10.672 h 3.024 v -2.576 l 0.608,-1.072 1.792,3.648 z m 6.023993,0.192 c 2.688,0 4.432,-1.52 4.432,-4.112 v -6.752 h -3.056 v 6.784 c 0,0.88 -0.48,1.424 -1.376,1.424 -0.896,0 -1.376,-0.544 -1.376,-1.424 v -6.784 h -3.056 v 6.768 c 0,2.576 1.76,4.096 4.432,4.096 z m 15.303994,-0.192 -1.648,-4.016 c 0.704,-0.4 1.6,-1.312 1.6,-3.104 0,-1.968 -1.376,-3.552 -3.584,-3.552 h -4.704 v 10.672 h 3.024 v -3.456 h 0.768 l 1.2,3.456 z m -4.112,-6.096 h -1.2 v -1.936 h 1.2 c 0.544,0 0.992,0.32 0.992,0.96 0,0.64 -0.448,0.976 -0.992,0.976 z m 15.256,6.096 -3.136,-10.672 h -3.664 l -3.136,10.672 h 3.28 l 0.304,-1.376 h 2.768 l 0.304,1.376 z m -4.176,-4.016 h -1.584 l 0.8,-3.536 z m 14.472,4.016 v -10.672 h -3.024 v 4.608 l -2.624,-4.608 h -3.072 v 10.672 h 3.024 v -4.928 l 2.832,4.928 z m 6.95201,0.192 c 1.776,0 3.04,-0.72 4.064,-1.856 v -4.592 h -4.32 v 2.656 h 1.472 v 0.72 c -0.256,0.24 -0.736,0.4 -1.216,0.4 -1.04,0 -1.808,-0.88 -1.808,-2.848 0,-1.984 0.768,-2.848 1.808,-2.848 0.768,0 1.232,0.64 1.44,1.312 l 2.48,-1.104 c -0.528,-1.504 -1.792,-2.88 -3.92,-2.88 -2.944,0 -4.896,2.16 -4.896,5.52 0,3.328 1.936,5.52 4.896,5.52 z m 15.25602,-0.192 -3.136,-10.672 h -3.664 l -3.136,10.672 h 3.28 l 0.304,-1.376 h 2.768 l 0.304,1.376 z m -4.176,-4.016 h -1.584 l 0.8,-3.536 z"
     id="path9" /><path
     d="m 138.50416,77.775107 c 0,24.684533 -20.01065,44.695183 -44.695193,44.695183 -24.684538,0 -44.696264,-20.01065 -44.696264,-44.695183 0,0 11.762741,-8.604128 23.069178,0.816827 11.306438,9.420955 23.891387,-0.667237 23.891387,-0.667237 0,0 11.057842,-9.313336 22.002672,0 10.29913,8.766632 20.42822,-0.14959 20.42822,-0.14959 z"
     fill="#178e3b"
     id="path1-0"
     style="fill:#00ccff;fill-opacity:1;stroke-width:0.0837703" /><path
     d="M 95.002461,123.85212 A 46.921823,46.921823 0 0 1 48.047276,76.896936 2.259996,2.259996 0 0 1 48.972798,75.072797 c 0.1356,-0.09901 3.376004,-2.441872 8.135985,-3.506223 4.46726,-0.998703 11.16761,-1.044978 17.714066,4.412374 4.073373,3.394298 8.816136,4.325201 14.09807,2.767957 3.964678,-1.168741 6.734788,-3.308204 6.919893,-3.454565 0.360523,-0.297029 3.352327,-2.690472 7.707658,-3.911947 4.30476,-1.211788 10.7705,-1.506663 17.18351,3.946385 3.61169,3.073594 7.59143,4.018488 11.82839,2.809928 a 16.434476,16.434476 0 0 0 5.65106,-2.939071 2.259996,2.259996 0 0 1 3.74729,1.701454 46.921823,46.921823 0 0 1 -46.956259,46.953031 z M 52.584487,78.131325 c 0.655399,22.830265 19.431662,41.200805 42.417974,41.200805 21.965009,0 40.085869,-16.77455 42.224259,-38.186401 a 20.339964,20.339964 0 0 1 -3.23825,1.279589 c -4.02064,1.192417 -10.09357,1.526035 -16.18695,-3.659042 -3.88827,-3.30928 -8.22316,-4.344573 -12.88306,-3.078975 a 18.227407,18.227407 0 0 0 -6.204225,3.090813 l -0.03659,0.03013 c -0.143133,0.114076 -3.551423,2.817461 -8.47929,4.270316 -6.72295,1.98234 -13.040178,0.726427 -18.270454,-3.629984 -4.121803,-3.434118 -8.776318,-4.602859 -13.834405,-3.471784 a 20.13226,20.13226 0 0 0 -5.509009,2.154529 z"
     fill="#203529"
     id="path2-9"
     style="stroke-width:0.484;stroke-dasharray:none" /><path
     d="m 124.54491,75.576453 a 3.9076408,3.9076408 0 0 1 -0.96857,-0.117304 3.3060514,3.3060514 0 0 1 -2.16636,-1.729435 c -0.51012,-0.993322 -0.40788,-2.22771 0.37559,-4.537211 0.10762,-0.322857 0.22169,-0.633876 0.32285,-0.921218 -10.43903,-10.730677 -13.00251,-11.366704 -16.22246,-12.160932 -0.38097,-0.0947 -0.77809,-0.192637 -1.19995,-0.306713 a 2.259996,2.259996 0 0 1 -1.64873,2.152377 9.3068792,9.3068792 0 0 1 -2.52043,0.356218 c -2.3095,0 -4.508153,-0.911532 -6.366731,-2.673252 A 13.438367,13.438367 0 0 1 91.955771,52.89255 c -0.829742,-0.04628 -2.798091,0.107619 -6.488341,1.710063 -0.92337,0.401419 -2.446177,1.064351 -3.85706,1.064351 -0.938436,0 -1.829521,-0.292723 -2.456939,-1.151522 -1.278512,-1.742349 0.04843,-3.791412 0.485361,-4.465106 0.27658,-0.430476 0.568227,-0.816827 0.793151,-1.102017 0.830818,-3.465328 2.751814,-6.162256 5.718866,-8.020834 7.653854,-4.792268 19.945001,-2.233091 22.353511,-1.66594 3.52452,-0.305638 5.59618,0.114076 6.67991,1.346312 a 2.7604237,2.7604237 0 0 1 0.66293,2.414967 2.259996,2.259996 0 0 1 -0.22708,0.594056 c 7.46767,5.148487 12.26855,17.566627 13.6676,21.574353 6.25803,1.555093 9.52749,4.169154 9.67278,4.28646 a 2.259996,2.259996 0 0 1 -1.40873,4.014183 l -7.33423,0.05273 a 2.2503104,2.2503104 0 0 1 -0.48536,-0.0495 q -0.0603,0.04843 -0.12376,0.09255 a 15.666077,15.666077 0 0 1 -1.82952,1.076188 c -1.22685,0.611275 -2.29443,0.912608 -3.23395,0.912609 z m 11.57441,-2.582852 z M 100.0175,49.684431 a 4.4586494,4.4586494 0 0 1 0.76517,0.06995 c 0.68015,0.11838 1.51312,0.387428 2.6216,0.845884 1.39904,0.581142 2.50967,0.85557 3.57725,1.120313 1.91884,0.475675 3.90333,0.968569 6.8876,3.013327 2.53981,1.748807 5.7447,4.589945 9.96981,8.844118 -2.00386,-4.950467 -5.84585,-12.914263 -10.89748,-16.313943 l -0.0796,-0.05596 c -1.52173,-1.122464 -2.32457,-2.304119 -2.3956,-3.523441 -0.49181,0 -1.11923,0.03336 -1.91131,0.107619 a 2.259996,2.259996 0 0 1 -0.78884,-0.06134 c -0.12269,-0.03121 -12.547285,-3.159689 -19.222884,1.029913 -1.937139,1.215017 -3.152155,2.920775 -3.708545,5.207677 6.389331,-2.533349 9.058279,-1.472227 9.926763,-0.867409 a 2.1782057,2.1782057 0 0 1 0.76517,0.910456 8.9485084,8.9485084 0 0 0 1.735893,2.343939 2.4859956,2.4859956 0 0 1 0.397114,-1.451778 c 0.304561,-0.486438 0.991169,-1.219323 2.357929,-1.219323 z m 14.84495,-6.725102 z"
     fill="#203529"
     id="path3-4"
     style="stroke-width:0.0837703" /><path
     d="m 93.807891,45.653029 m -1.100941,0 a 1.100941,1.100941 0 1 0 2.201882,0 1.100941,1.100941 0 1 0 -2.201882,0 z"
     fill="#203529"
     id="path4"
     style="stroke-width:0.0837703" /><path
     d="m 117.11706,69.344245 a 1.1267695,1.1267695 0 0 1 -0.83405,-0.36698 c -0.0581,-0.0635 -5.23996,-5.612323 -12.40092,-5.425067 a 1.1303856,1.1303856 0 1 1 -0.0592,-2.259996 c 8.21885,-0.215238 13.89145,5.899666 14.12928,6.160103 a 1.1299981,1.1299981 0 0 1 -0.83512,1.890864 z M 96.260525,70.608766 A 1.1299981,1.1299981 0 0 1 95.58145,68.57477 c 5.42614,-4.069069 15.56276,-1.040674 15.99109,-0.910456 a 1.130236,1.130236 0 0 1 -0.65971,2.162063 c -0.0936,-0.02906 -9.47046,-2.823919 -13.976458,0.55639 a 1.1246171,1.1246171 0 0 1 -0.675847,0.225999 z m 41.275065,-3.772041 h -0.0312 a 1.1299981,1.1299981 0 0 1 -1.10202,-1.161207 c 0.0732,-2.690471 -2.30412,-8.090785 -3.22856,-9.943983 a 1.1299981,1.1299981 0 1 1 2.02323,-1.006236 c 0.14529,0.292724 3.56541,7.210463 3.46209,11.011561 a 1.1299981,1.1299981 0 0 1 -1.12353,1.099865 z M 91.245486,94.020173 a 22.659151,22.659151 0 0 1 -6.296779,-0.940588 c -4.889125,-1.414113 -8.355528,-3.908717 -8.50189,-4.014184 a 1.1303513,1.1303513 0 0 1 1.328017,-1.829521 28.179999,28.179999 0 0 0 7.862634,3.689175 c 5.911504,1.693921 11.03739,0.846961 15.234522,-2.516129 4.26494,-3.416899 9.65234,-4.050774 15.58214,-1.829521 a 28.368331,28.368331 0 0 1 7.59036,4.324126 1.1305212,1.1305212 0 1 1 -1.45393,1.731588 26.535582,26.535582 0 0 0 -6.98232,-3.957145 c -5.19261,-1.931759 -9.67493,-1.423798 -13.32106,1.495901 -3.186593,2.552719 -6.93173,3.846298 -11.041694,3.846298 z"
     fill="#203529"
     id="path5"
     style="stroke-width:0.0837703" /><path
     d="m 86.866475,105.26204 c -4.527526,0 -9.528574,-0.99978 -12.823863,-3.88289 -5.925495,-5.183999 -11.767046,-1.14399 -12.013494,-0.96857 a 1.1299981,1.1299981 0 0 1 -1.317255,-1.835976 12.574187,12.574187 0 0 1 4.642678,-1.874721 c 2.540881,-0.478904 6.368884,-0.350837 10.175363,2.97889 3.964679,3.468557 11.011562,3.766657 15.841496,2.962747 3.70747,-0.6145 5.928723,-1.81876 6.42377,-2.676481 a 1.1299981,1.1299981 0 0 1 1.957587,1.128921 c -1.409807,2.44295 -6.071856,3.45457 -8.011148,3.77635 a 30.151576,30.151576 0 0 1 -4.875134,0.39173 z"
     fill="#2fa65b"
     id="path6"
     style="fill:#0064c8;fill-opacity:1;stroke-width:0.0837703" /><path
     d="m 119.24146,110.21574 a 1.1246171,1.1246171 0 0 1 -0.59729,-0.17219 c -0.0474,-0.0291 -2.23739,-1.36676 -5.42937,-2.05445 -4.22296,-0.9083 -8.13383,-0.30779 -11.62284,1.7854 a 1.1299981,1.1299981 0 1 1 -1.16228,-1.93714 c 3.96468,-2.37838 8.57938,-3.08328 13.34474,-2.0383 3.57294,0.78346 5.96746,2.26645 6.06755,2.32887 a 1.1299981,1.1299981 0 0 1 -0.60051,2.08781 z"
     fill="#203529"
     id="path7"
     style="stroke-width:0.0837703" /></svg>
