<?xml version="1.0" encoding="UTF-8" standalone="no"?>
<svg
   width="2500pt"
   height="918pt"
   viewBox="0 0 2500 918"
   version="1.1"
   id="svg3"
   sodipodi:docname="the-nature-conservancy.svg"
   inkscape:version="1.4 (86a8ad7, 2024-10-11)"
   xmlns:inkscape="http://www.inkscape.org/namespaces/inkscape"
   xmlns:sodipodi="http://sodipodi.sourceforge.net/DTD/sodipodi-0.dtd"
   xmlns="http://www.w3.org/2000/svg"
   xmlns:svg="http://www.w3.org/2000/svg">
  <defs
     id="defs3" />
  <sodipodi:namedview
     id="namedview3"
     pagecolor="#ffffff"
     bordercolor="#000000"
     borderopacity="0.25"
     inkscape:showpageshadow="2"
     inkscape:pageopacity="0.0"
     inkscape:pagecheckerboard="0"
     inkscape:deskcolor="#d1d1d1"
     inkscape:document-units="pt"
     inkscape:zoom="0.18405"
     inkscape:cx="255.36539"
     inkscape:cy="-230.91551"
     inkscape:window-width="2560"
     inkscape:window-height="1494"
     inkscape:window-x="-11"
     inkscape:window-y="-11"
     inkscape:window-maximized="1"
     inkscape:current-layer="svg3" />
  <path
     fill-rule="nonzero"
     fill="rgb(27.799988%, 67.098999%, 28.199768%)"
     fill-opacity="1"
     d="M 1839.566406 329.769531 C 1839.566406 512.121094 1987.417969 659.972656 2169.785156 659.972656 C 2214.785156 659.972656 2257.703125 650.898438 2296.796875 634.585938 C 2250.71875 645.285156 2224.828125 627.789062 2222.324219 621.054688 C 2217.339844 607.828125 2256.027344 616.832031 2219.582031 598.085938 C 2197.570312 586.757812 2188.167969 564.292969 2185.769531 554.480469 L 2178.285156 550.292969 C 2176.980469 549.917969 2176.082031 549.664062 2176.261719 549.84375 C 2176.261719 549.84375 2018.015625 527.5625 2009.324219 490.363281 C 2000.046875 450.527344 1948.992188 460.070312 1948.355469 428.261719 C 1948.101562 412.402344 1967.320312 418.246094 1971.9375 411.320312 C 1977.675781 402.589844 1969.808594 398.90625 1945.796875 384.496094 C 1882.359375 346.390625 1891.5625 286.367188 1901.863281 277 C 1908.574219 270.902344 1915.933594 274.3125 1922.644531 277.738281 C 1929.25 281.09375 1935.203125 284.449219 1939.28125 278.765625 C 1947.542969 267.34375 1900.707031 202.777344 1999.664062 129.382812 C 1999.664062 129.382812 2011.390625 167.214844 2047.4375 180.167969 C 2085.722656 193.933594 2023.621094 245.804688 2037.117188 280.625 C 2044.75 300.179688 2060.191406 275.644531 2074.355469 261.914062 C 2086.515625 250.132812 2103.292969 220.039062 2124.367188 226.609375 C 2142.894531 232.398438 2136.457031 256.703125 2140.621094 269.601562 C 2146.035156 286.363281 2159.417969 281.09375 2166.65625 295.746094 C 2173.621094 309.78125 2168.695312 315.644531 2147.511719 333.921875 C 2108.886719 367.335938 2127.304688 404.554688 2138.21875 397.226562 C 2154.53125 386.3125 2151.480469 374.316406 2177.898438 372.816406 C 2197.742188 371.71875 2204.5625 391.253906 2199.257812 405.347656 C 2193.898438 419.457031 2190.777344 423.949219 2193.988281 434.089844 C 2202.179688 459.976562 2197.382812 452.074219 2183.90625 475.621094 C 2172.394531 495.738281 2172.828125 514.648438 2186.285156 546.816406 C 2213.457031 560.617188 2223.632812 552.066406 2234.871094 543.496094 C 2243.785156 536.707031 2253.328125 529.925781 2272.542969 534.277344 C 2369.714844 556.429688 2316.910156 524.785156 2333.433594 508.65625 C 2341.949219 500.335938 2348.445312 500.933594 2356.1875 501.492188 C 2362.085938 501.960938 2368.726562 502.375 2377.496094 498.875 C 2407.476562 480.078125 2410.347656 473.707031 2449.863281 504.628906 C 2481.578125 453.894531 2500 393.980469 2500 329.765625 C 2500 273.875 2486.085938 221.230469 2461.550781 175.09375 C 2447.800781 162.265625 2436.4375 154.308594 2439.742188 174.914062 C 2441.578125 186.285156 2491.769531 279.792969 2416.464844 352.066406 C 2416.464844 352.066406 2416.429688 351.289062 2416.320312 350.082031 C 2415.507812 341.511719 2410.351562 307.972656 2380.90625 303.570312 C 2345.054688 298.175781 2374.824219 243.382812 2357.394531 217.816406 C 2332.804688 181.804688 2326.4375 231.242188 2317.847656 242.066406 C 2308.988281 253.128906 2272.546875 273.730469 2272.546875 245.316406 C 2272.546875 212.984375 2249.851562 208.945312 2241.136719 198.425781 C 2232.75 188.335938 2236.195312 182.960938 2251.835938 165.460938 C 2280.503906 133.492188 2259.902344 113.375 2251.492188 120.753906 C 2238.933594 131.722656 2241.914062 134.125 2218.945312 139.046875 C 2201.699219 142.820312 2202.507812 113.355469 2204.585938 101.34375 C 2216.492188 33.035156 2171.027344 7.039062 2105.933594 5.738281 C 1954.09375 35.527344 1839.566406 169.253906 1839.566406 329.769531 "
     id="path1" />
  <path
     fill-rule="nonzero"
     fill="rgb(27.799988%, 67.098999%, 28.199768%)"
     fill-opacity="1"
     d="M 2412.207031 539.828125 C 2395.644531 549.875 2368.796875 573.566406 2324.882812 559.6875 C 2324.882812 559.6875 2342.058594 572.933594 2369.699219 572.191406 C 2334.445312 590.414062 2296.253906 594.761719 2235.777344 579.625 C 2235.777344 579.625 2358.207031 651.84375 2443.746094 513.625 C 2443.742188 513.628906 2422.507812 533.5625 2412.207031 539.828125 M 2195.261719 0.0585938 C 2201.445312 0.746094 2248.195312 6.96875 2297.558594 38.46875 C 2315.90625 55.664062 2341.90625 97.828125 2301.796875 184.265625 C 2301.796875 184.265625 2353.179688 114.914062 2340.1875 72.800781 C 2383.292969 116.050781 2419.519531 184.589844 2420.890625 293.203125 C 2420.890625 293.203125 2468.792969 21.078125 2195.261719 0.0585938 M 2196.867188 560.410156 C 2196.867188 560.410156 1979.824219 476.15625 1972.265625 262.554688 C 1972.265625 262.558594 1993.246094 424.933594 2196.867188 560.410156 "
     id="path2" />
  <path
     fill-rule="nonzero"
     fill="rgb(12.89978%, 11.799622%, 11.799622%)"
     fill-opacity="1"
     d="M 1249.527344 572.398438 L 1249.582031 508.855469 C 1249.582031 469.957031 1221.671875 456.171875 1197.78125 456.171875 C 1171.875 456.171875 1150.855469 473.621094 1144.773438 500.355469 L 1152.082031 502.375 C 1158.144531 481.703125 1173.894531 471.597656 1190.082031 471.597656 C 1210.324219 471.597656 1222.066406 486.210938 1222.066406 506.4375 L 1222.066406 516.972656 C 1198.613281 530.753906 1142.757812 529.113281 1142.757812 570.035156 C 1142.757812 591.105469 1161.355469 608.101562 1183.625 608.101562 C 1198.617188 608.101562 1209.605469 602.183594 1223.765625 586.777344 L 1223.855469 586.738281 L 1223.855469 603.988281 L 1274.101562 603.988281 L 1274.101562 596.984375 C 1253.640625 596.988281 1249.527344 591.253906 1249.527344 572.398438 M 1222.066406 574.492188 C 1216.402344 586.652344 1201.011719 592.730469 1192.53125 592.730469 C 1180.789062 592.730469 1170.667969 580.96875 1170.667969 566.390625 C 1170.667969 537.214844 1194.953125 537.628906 1222.066406 525.886719 Z M 961.980469 317.421875 L 962.050781 231.703125 C 962.050781 179.203125 924.398438 160.636719 892.175781 160.636719 C 857.265625 160.636719 828.867188 184.148438 820.695312 220.210938 L 830.527344 222.96875 C 838.71875 195.078125 859.988281 181.402344 881.820312 181.402344 C 909.082031 181.402344 924.921875 201.101562 924.921875 228.417969 L 924.921875 242.617188 C 893.296875 261.199219 817.957031 259 817.957031 314.226562 C 817.957031 342.640625 843.050781 365.574219 873.070312 365.574219 C 893.292969 365.574219 908.128906 357.566406 927.214844 336.835938 L 927.355469 336.761719 L 927.355469 360.035156 L 995.140625 360.035156 L 995.140625 350.617188 C 967.519531 350.621094 961.980469 342.859375 961.980469 317.421875 M 924.921875 320.21875 C 917.308594 336.636719 896.542969 344.828125 885.105469 344.828125 C 869.265625 344.828125 855.605469 328.988281 855.605469 309.300781 C 855.605469 269.9375 888.355469 270.511719 924.921875 254.652344 Z M 1704.578125 570.558594 L 1729.945312 494.058594 C 1735.625 476.867188 1734.421875 467.464844 1718.507812 466.65625 L 1718.507812 459.710938 L 1769.566406 459.710938 L 1769.566406 466.65625 C 1754.011719 466.65625 1744.652344 476.488281 1736.460938 500.609375 L 1678.835938 671.226562 C 1667.394531 704.75 1648.59375 723.984375 1631.023438 723.984375 C 1624.910156 723.984375 1620.429688 722.359375 1613.050781 717.882812 L 1622.46875 692.914062 C 1628.171875 695.367188 1631.421875 696.179688 1636.34375 696.179688 C 1653.882812 696.179688 1664.148438 685.949219 1673.113281 660.582031 L 1691.949219 608.1875 L 1640.042969 488.335938 C 1632.683594 471.539062 1627.359375 467.0625 1610.617188 466.648438 L 1610.617188 459.703125 L 1680.078125 459.703125 L 1680.078125 466.648438 C 1669.035156 468.289062 1664.542969 476.480469 1669.867188 488.734375 Z M 1600.792969 506.324219 L 1593.832031 506.324219 C 1587.660156 480.183594 1569.3125 463.367188 1545.1875 463.367188 C 1516.59375 463.367188 1496.585938 487.941406 1496.585938 523.484375 C 1496.585938 563.195312 1521.480469 596.355469 1550.925781 596.355469 C 1568.5 596.355469 1589.753906 586.957031 1604.851562 566.066406 L 1604.851562 576.726562 C 1589.320312 597.980469 1567.273438 608.625 1541.128906 608.625 C 1498.1875 608.625 1468.367188 578.765625 1468.367188 535.355469 C 1468.367188 490.792969 1501.90625 455.175781 1543.152344 455.175781 C 1564.820312 455.175781 1576.65625 463.367188 1584.015625 463.367188 C 1587.664062 463.367188 1591.378906 460.5 1593.832031 455.175781 L 1600.792969 455.175781 Z M 1439.972656 572.628906 C 1439.972656 591.414062 1444.085938 597.148438 1464.46875 597.148438 L 1464.46875 604.128906 L 1387.289062 604.128906 L 1387.289062 597.148438 C 1406.902344 597.148438 1412.1875 592.675781 1412.1875 579.175781 L 1412.1875 503.472656 C 1412.1875 480.179688 1395.425781 470.347656 1379.890625 470.347656 C 1365.597656 470.347656 1352.972656 479.3125 1338.628906 498.546875 L 1338.628906 569.34375 C 1338.628906 591.410156 1341.5 597.144531 1363.183594 597.144531 L 1363.183594 604.125 L 1286.742188 604.125 L 1286.742188 597.144531 C 1305.957031 597.144531 1310.847656 595.523438 1310.847656 569.34375 L 1310.847656 487.941406 C 1310.847656 470.347656 1306.335938 466.667969 1286.742188 466.667969 L 1286.742188 459.703125 L 1331.703125 455.171875 L 1338.632812 455.171875 L 1338.632812 484.203125 C 1355.808594 464.589844 1372.570312 455.171875 1390.917969 455.171875 C 1415.054688 455.171875 1439.972656 472.386719 1439.972656 507.152344 Z M 1084.527344 568.917969 L 1112.726562 495.6875 C 1119.6875 476.871094 1119.6875 468.296875 1098.421875 466.65625 L 1098.421875 459.695312 L 1151.554688 459.695312 L 1151.554688 466.65625 C 1134.808594 468.296875 1130.714844 471.960938 1123.75 487.496094 L 1077.167969 607.402344 L 1070.257812 607.402344 L 1024.050781 493.648438 C 1014.238281 469.960938 1010.554688 467.46875 993.394531 466.65625 L 993.394531 459.695312 L 1063.292969 459.695312 L 1063.292969 466.65625 C 1049.382812 467.886719 1045.71875 475.660156 1052.25 491.609375 Z M 912.101562 576.722656 C 912.101562 592.671875 916.992188 597.167969 936.207031 597.167969 L 936.207031 604.128906 L 859.800781 604.128906 L 859.800781 597.167969 C 881.828125 597.167969 884.300781 591.425781 884.300781 569.363281 L 884.300781 490.375 C 884.300781 469.101562 878.976562 466.652344 854.480469 466.652344 L 854.480469 459.707031 L 905.140625 455.195312 L 912.105469 455.195312 L 912.105469 486.695312 C 939.078125 463.347656 951.746094 455.195312 961.539062 455.195312 C 969.710938 455.195312 980.753906 460.105469 988.117188 466.652344 L 977.054688 492.398438 C 965.203125 485.882812 952.535156 479.734375 942.738281 479.734375 C 933.355469 479.734375 925.164062 484.65625 912.101562 497.324219 Z M 733.851562 515.757812 C 733.042969 580.78125 771.851562 597.183594 791.476562 597.183594 C 811.503906 597.183594 821.734375 590.21875 842.539062 566.910156 L 842.539062 577.519531 C 824.984375 600.015625 808.222656 608.640625 782.890625 608.640625 C 737.535156 608.640625 704.84375 577.140625 704.84375 533.335938 C 704.84375 489.585938 736.703125 455.195312 777.570312 455.195312 C 811.078125 455.195312 842.160156 482.222656 840.105469 515.761719 L 733.851562 515.761719 Z M 812.730469 508.777344 C 813.941406 476.859375 792.289062 463.816406 773.90625 463.816406 C 749.785156 463.816406 735.511719 481.789062 733.851562 508.777344 Z M 673.5 499.78125 C 670.648438 475.660156 654.714844 463.390625 637.542969 463.390625 C 623.234375 463.390625 613.417969 471.148438 613.417969 483.019531 C 613.417969 519.839844 689.429688 510.007812 689.429688 564.023438 C 689.429688 588.164062 668.605469 608.605469 643.675781 608.605469 C 627.742188 608.605469 613.851562 597.960938 606.886719 597.960938 C 601.597656 597.960938 597.902344 602.492188 597.484375 607.777344 L 590.558594 607.777344 L 590.558594 558.285156 L 597.484375 558.285156 C 603.636719 588.5625 626.101562 600.449219 644.070312 600.449219 C 658.394531 600.449219 669.417969 589.785156 669.417969 575.460938 C 669.417969 534.992188 592.597656 546 592.597656 496.925781 C 592.597656 474.390625 612.621094 455.195312 636.707031 455.195312 C 651.84375 455.195312 656.355469 462.140625 666.152344 462.140625 C 669.816406 462.140625 672.683594 460.101562 674.722656 455.195312 L 681.667969 455.195312 L 681.667969 499.777344 L 673.5 499.777344 Z M 553.90625 572.628906 C 553.90625 591.414062 557.984375 597.148438 578.40625 597.148438 L 578.40625 604.128906 L 501.222656 604.128906 L 501.222656 597.148438 C 520.800781 597.148438 526.121094 592.675781 526.121094 579.175781 L 526.121094 503.472656 C 526.121094 480.179688 509.359375 470.347656 493.863281 470.347656 C 479.539062 470.347656 466.890625 479.3125 452.5625 498.546875 L 452.5625 569.34375 C 452.5625 591.410156 455.414062 597.144531 477.082031 597.144531 L 477.082031 604.125 L 400.675781 604.125 L 400.675781 597.144531 C 419.875 597.144531 424.78125 595.523438 424.78125 569.34375 L 424.78125 487.941406 C 424.78125 470.347656 420.269531 466.667969 400.675781 466.667969 L 400.675781 459.703125 L 445.601562 455.171875 L 452.5625 455.171875 L 452.5625 484.203125 C 469.742188 464.589844 486.464844 455.171875 504.867188 455.171875 C 528.972656 455.171875 553.90625 472.386719 553.90625 507.152344 Z M 306.769531 608.632812 C 261.410156 608.632812 227.511719 575.886719 227.511719 532.078125 C 227.511719 487.929688 261.410156 455.1875 306.769531 455.1875 C 352.125 455.1875 386.027344 487.933594 386.027344 532.078125 C 386.027344 575.882812 352.128906 608.632812 306.769531 608.632812 M 306.769531 463.378906 C 276.132812 463.378906 257.730469 490.367188 257.730469 532.082031 C 257.730469 569.339844 273.261719 600.445312 306.769531 600.445312 C 341.085938 600.445312 355.804688 567.300781 355.804688 532.082031 C 355.808594 495.691406 340.289062 463.378906 306.769531 463.378906 M 198.601562 436.359375 C 187.183594 392.175781 163.0625 372.941406 122.613281 372.941406 C 66.214844 372.941406 35.957031 418.375 35.957031 478.523438 C 35.957031 548.90625 72.347656 595.109375 125.050781 595.109375 C 161.816406 595.109375 189.207031 577.933594 206.796875 543.5625 L 212.898438 549.300781 C 197.398438 586.523438 160.214844 609.851562 115.273438 609.851562 C 58.871094 609.851562 0 571.367188 0 493.246094 C 0 418.785156 51.09375 363.941406 120.988281 363.941406 C 150.398438 363.941406 172.480469 373.773438 186.355469 373.773438 C 192.46875 373.773438 196.566406 371.300781 199 366.390625 L 205.570312 366.390625 L 205.570312 436.359375 Z M 1619.953125 241.535156 C 1618.847656 328.441406 1670.707031 350.273438 1696.898438 350.273438 C 1723.65625 350.273438 1737.277344 341 1765.117188 309.839844 L 1765.117188 324.074219 C 1741.664062 354.117188 1719.253906 365.589844 1685.425781 365.589844 C 1624.84375 365.589844 1581.179688 323.519531 1581.179688 265.023438 C 1581.179688 206.550781 1623.742188 160.632812 1678.332031 160.632812 C 1723.078125 160.632812 1764.554688 196.699219 1761.847656 241.535156 Z M 1725.28125 232.242188 C 1726.921875 189.605469 1698.003906 172.125 1673.425781 172.125 C 1641.222656 172.125 1622.097656 196.175781 1619.953125 232.242188 Z M 1476.652344 322.964844 C 1476.652344 344.25 1483.183594 350.277344 1508.839844 350.277344 L 1508.839844 359.589844 L 1406.777344 359.589844 L 1406.777344 350.277344 C 1436.257812 350.277344 1439.539062 342.648438 1439.539062 313.113281 L 1439.539062 207.640625 C 1439.539062 179.246094 1432.414062 175.941406 1399.683594 175.941406 L 1399.683594 166.671875 L 1467.359375 160.628906 L 1476.648438 160.628906 L 1476.648438 202.738281 C 1512.660156 171.578125 1529.582031 160.628906 1542.683594 160.628906 C 1553.617188 160.628906 1568.355469 167.210938 1578.191406 175.945312 L 1563.433594 210.386719 C 1547.609375 201.636719 1530.667969 193.429688 1517.605469 193.429688 C 1505.03125 193.429688 1494.113281 199.996094 1476.648438 216.9375 L 1476.648438 322.964844 Z M 1356.726562 322.964844 C 1356.726562 344.25 1363.8125 350.277344 1390.011719 350.277344 L 1390.011719 359.589844 L 1319.613281 363.394531 L 1319.613281 327.867188 L 1318.527344 327.867188 C 1299.40625 353 1277.03125 365.578125 1250.800781 365.578125 C 1212.605469 365.578125 1187.527344 336.621094 1187.527344 300.574219 L 1187.527344 201.632812 C 1187.527344 183.050781 1180.976562 175.941406 1153.125 175.941406 L 1153.125 166.667969 L 1215.347656 160.625 L 1224.640625 160.625 L 1224.640625 298.914062 C 1224.640625 326.25 1242.105469 342.648438 1268.300781 342.648438 C 1286.847656 342.648438 1303.769531 332.257812 1319.609375 310.929688 L 1319.609375 206.558594 C 1319.609375 179.765625 1315.226562 176.503906 1281.960938 175.941406 L 1281.960938 166.671875 L 1347.429688 160.628906 L 1356.722656 160.628906 L 1356.722656 322.964844 Z M 1069.546875 165.5625 L 1136.660156 165.5625 L 1136.660156 179.761719 L 1069.546875 179.761719 L 1069.546875 304.375 C 1069.546875 331.167969 1083.183594 344.804688 1104.492188 344.804688 C 1118.671875 344.804688 1129.066406 339.359375 1140.503906 326.238281 L 1146.507812 333.347656 C 1129.570312 354.636719 1109.957031 365.570312 1088.128906 365.570312 C 1055.363281 365.570312 1032.429688 342.636719 1032.429688 309.300781 L 1032.429688 179.757812 L 995.878906 179.757812 L 995.878906 170.5 C 1022.054688 157.367188 1043.886719 133.859375 1060.269531 100.535156 L 1069.542969 100.535156 L 1069.542969 165.5625 Z M 780.996094 359.589844 L 771.722656 359.589844 L 551.199219 87.414062 L 550.113281 87.414062 L 550.113281 307.105469 C 550.113281 338.808594 562.691406 350.28125 591.066406 350.28125 L 591.066406 359.589844 L 496.097656 359.589844 L 496.097656 350.28125 C 522.273438 350.28125 534.832031 342.089844 534.832031 296.734375 L 534.832031 113.648438 C 534.832031 78.664062 525.5625 58.996094 488.449219 55.695312 L 488.449219 46.441406 L 568.660156 46.441406 L 764.054688 290.167969 L 765.152344 290.167969 L 765.152344 107.097656 C 765.152344 66.089844 754.242188 55.695312 726.960938 55.695312 L 726.960938 46.441406 L 821.390625 46.441406 L 821.390625 55.695312 C 790.84375 55.695312 780.996094 68.289062 780.996094 104.894531 Z M 374.773438 210.992188 C 374.128906 265.820312 406.800781 279.585938 423.359375 279.585938 C 440.226562 279.585938 448.800781 273.761719 466.386719 254.09375 L 466.386719 263.078125 C 451.613281 282.023438 437.449219 289.238281 416.125 289.238281 C 377.890625 289.238281 350.328125 262.714844 350.328125 225.800781 C 350.328125 188.960938 377.191406 159.984375 411.613281 159.984375 C 439.867188 159.984375 466.027344 182.71875 464.332031 210.988281 L 374.773438 210.988281 Z M 441.246094 205.128906 C 442.308594 178.230469 424.03125 167.203125 408.550781 167.203125 C 388.238281 167.203125 376.167969 182.375 374.777344 205.128906 Z M 317.8125 256.15625 C 317.8125 274.777344 321.277344 279.628906 337.425781 279.628906 L 337.425781 285.492188 L 274.078125 285.492188 L 274.078125 279.628906 C 290.660156 279.628906 294.410156 275.785156 294.410156 259.945312 L 294.410156 199.628906 C 294.410156 183.410156 284.757812 173.074219 269.964844 173.074219 C 256.199219 173.074219 246.207031 179.605469 234.496094 196.203125 L 234.496094 263.085938 C 234.496094 275.789062 239.65625 279.632812 254.773438 279.632812 L 254.773438 285.496094 L 189.390625 285.496094 L 189.390625 279.632812 C 207.613281 279.273438 211.113281 275.789062 211.113281 256.160156 L 211.113281 97.226562 C 211.113281 81.351562 206.605469 78.953125 189.390625 78.953125 L 189.390625 73.105469 L 228.632812 68.941406 L 234.496094 68.941406 L 234.496094 184.460938 C 249.996094 166.507812 261.378906 159.996094 277.164062 159.996094 C 297.535156 159.996094 317.808594 173.417969 317.808594 202.375 L 317.808594 256.15625 Z M 104.960938 249.273438 C 104.960938 273.035156 109.453125 279.621094 126.320312 279.621094 L 126.320312 285.488281 L 56.390625 285.488281 L 56.390625 279.621094 C 70.535156 279.621094 78.796875 275.457031 78.796875 248.226562 L 78.796875 97.582031 L 50.203125 97.582031 C 23.699219 97.582031 11.628906 105.121094 9.894531 125.835938 L 4.070312 125.835938 L 4.070312 80.65625 L 9.894531 80.65625 C 12.675781 83.074219 15.777344 84.789062 20.609375 86.175781 C 25.085938 87.257812 31.257812 87.886719 39.539062 87.886719 L 142.828125 87.886719 C 160.058594 87.886719 167.980469 85.816406 174.167969 80.652344 L 180.351562 80.652344 L 180.351562 125.828125 L 176.582031 125.828125 C 172.777344 109.285156 166.261719 97.574219 134.90625 97.574219 L 104.953125 97.574219 L 104.953125 249.273438 Z M 104.960938 249.273438 "
     id="path3" />
</svg>
